<svg xmlns="http://www.w3.org/2000/svg" xmlns:xlink="http://www.w3.org/1999/xlink" viewBox="0,0,256,256" width="64px" height="64px"><defs><linearGradient x1="30" y1="62" x2="30" y2="3" gradientUnits="userSpaceOnUse" id="color-1"><stop offset="0" stop-color="#04c179"></stop><stop offset="1" stop-color="#07e980"></stop></linearGradient><linearGradient x1="30" y1="57.71" x2="30" y2="7" gradientUnits="userSpaceOnUse" id="color-2"><stop offset="0" stop-color="#32ff97"></stop><stop offset="1" stop-color="#44b78b"></stop></linearGradient></defs><g fill="none" fill-rule="nonzero" stroke="none" stroke-width="1" stroke-linecap="butt" stroke-linejoin="miter" stroke-miterlimit="10" stroke-dasharray="" stroke-dashoffset="0" font-family="none" font-weight="none" font-size="none" text-anchor="none" style="mix-blend-mode: normal"><g transform="scale(4,4)"><path d="M42.671,62c-0.155,0 -0.311,-0.036 -0.452,-0.108l-8.27,-4.188c-0.345,-0.175 -0.559,-0.534 -0.548,-0.921c0.012,-0.387 0.245,-0.733 0.601,-0.888c5.288,-2.307 8.201,-6.081 8.201,-10.627v-25.864c0,-0.265 0.105,-0.52 0.293,-0.708c0.188,-0.187 0.442,-0.292 0.707,-0.292c0,0 0,0 0.001,0l8.802,0.004c0.552,0 0.999,0.448 0.999,1v25.86c0,3.104 -0.722,13.483 -10.009,16.677c-0.105,0.037 -0.216,0.055 -0.325,0.055zM36.642,56.826l6.096,3.086c7.663,-2.925 8.268,-11.92 8.268,-14.644v-24.86l-6.802,-0.003v24.864c-0.001,4.817 -2.668,8.864 -7.562,11.557zM24.829,49.004c-11.5,0 -17.834,-5.823 -17.834,-16.397c0,-10.17 6.15,-16.241 16.452,-16.241c0.701,0 2.126,0.028 3.353,0.225v-12.591c0,-0.552 0.447,-1 1,-1h8.802c0.553,0 1,0.448 1,1v42.875c0,0.445 -0.294,0.837 -0.722,0.96c-3.31,0.959 -9.821,1.169 -12.051,1.169zM23.447,18.366c-4.346,0 -14.452,1.388 -14.452,14.241c0,11.899 8.61,14.397 15.834,14.397c2.748,0 7.839,-0.25 10.772,-0.906v-41.098h-6.801v12.868c0,0.333 -0.166,0.644 -0.442,0.83c-0.275,0.187 -0.627,0.222 -0.935,0.097c-0.727,-0.297 -2.521,-0.429 -3.976,-0.429zM25.738,40.674c-5.121,0 -7.941,-2.865 -7.941,-8.067c0,-5.065 2.672,-7.634 7.941,-7.634c0.646,0 1.382,0.08 2.249,0.245c0.472,0.09 0.812,0.502 0.812,0.982v13.245c0,0.48 -0.342,0.893 -0.813,0.982c-0.873,0.166 -1.608,0.247 -2.248,0.247zM25.738,26.973c-4.164,0 -5.941,1.685 -5.941,5.634c0,4.083 1.943,6.067 5.941,6.067c0.313,0 0.665,-0.026 1.062,-0.078v-11.546c-0.394,-0.051 -0.745,-0.077 -1.062,-0.077zM52.005,13.802h-8.802c-0.553,0 -1,-0.448 -1,-1v-8.802c0,-0.552 0.447,-1 1,-1h8.802c0.553,0 1,0.448 1,1v8.802c0,0.552 -0.447,1 -1,1zM44.203,11.802h6.802v-6.802h-6.802z" fill="url(#color-1)"></path><path d="M46.2,7v2.8h2.8v-2.8zM30.8,7v10.87l0.01,3.63c0,0 -2.81,-1.13 -7.36,-1.13c-4.65,0 -12.45,1.59 -12.45,12.24c0,3.06 0,12.39 13.83,12.39c2.35,0 6.07,-0.18 8.77,-0.57v-37.43zM30.8,41.93c-2.364,0.446 -3.631,0.74 -5.06,0.74c-6.23,0 -9.94,-3.76 -9.94,-10.06c0,-6.22 3.53,-9.64 9.94,-9.64c0.77,0 1.63,0.09 2.62,0.28l2.44,0.47zM46.2,22.41v22.86c0,4.42 -1.99,8.35 -5.62,11.31l2.22,1.13c5.74,-2.8 6.2,-10.15 6.2,-12.44v-22.86z" fill="url(#color-2)"></path></g></g></svg>