<?xml version="1.0" encoding="UTF-8" standalone="no"?>
<!-- Created with Inkscape (http://www.inkscape.org/) -->

<svg
   width="250px"
   height="250px"
   viewBox="0 0 250 250"
   version="1.1"
   id="SVGRoot"
   sodipodi:docname="logo-ali-ebrahimian.svg"
   inkscape:version="1.1.2 (0a00cf5339, 2022-02-04)"
   xmlns:inkscape="http://www.inkscape.org/namespaces/inkscape"
   xmlns:sodipodi="http://sodipodi.sourceforge.net/DTD/sodipodi-0.dtd"
   xmlns="http://www.w3.org/2000/svg"
   xmlns:svg="http://www.w3.org/2000/svg">
  <sodipodi:namedview
     id="namedview829"
     pagecolor="#505050"
     bordercolor="#eeeeee"
     borderopacity="1"
     inkscape:pageshadow="0"
     inkscape:pageopacity="0"
     inkscape:pagecheckerboard="0"
     inkscape:document-units="px"
     showgrid="false"
     inkscape:zoom="0.53629349"
     inkscape:cx="396.23826"
     inkscape:cy="560.32752"
     inkscape:window-width="1534"
     inkscape:window-height="836"
     inkscape:window-x="0"
     inkscape:window-y="0"
     inkscape:window-maximized="1"
     inkscape:current-layer="layer1" />
  <defs
     id="defs824" />
  <g
     inkscape:label="Layer 1"
     inkscape:groupmode="layer"
     id="layer1">
    <g
       id="g4050"
       transform="matrix(0.75919873,0,0,0.75919873,-13.048962,-12.20905)">
      <g
         id="svgg">
        <path
           id="path0"
           d="m 151.764,60.875 c -2.325,5.936 -2.03,17.518 0.656,25.747 3.924,12.024 9.596,19.015 30.647,37.775 21.632,19.277 28.258,30.937 28.264,49.736 0.002,6.681 -0.093,7.72 -1.344,14.667 -4.281,23.767 -3.157,45.748 2.961,57.895 1.054,2.093 0.942,2.03 2.221,1.248 16.903,-10.334 32.362,-30.906 35.738,-47.559 6.19,-30.538 -15.997,-60.318 -69.788,-93.669 -13.961,-8.657 -23.495,-23.155 -28.177,-42.848 -0.806,-3.391 -0.914,-3.666 -1.178,-2.992 m 166.887,1.836 c -0.009,0.049 -0.119,1.529 -0.244,3.289 -0.567,7.985 -3.686,16.962 -8.299,23.883 -6.693,10.044 -14.343,16.857 -29.708,26.456 -14.205,8.874 -20.481,11.849 -36.152,17.134 -7.363,2.483 -9.048,3.144 -9.048,3.549 0,0.115 1.662,1.662 3.693,3.439 11.648,10.184 16.235,19.011 17.911,34.471 0.356,3.282 0.347,3.261 0.777,1.826 3.312,-11.054 9.321,-19.697 21.776,-31.323 15.072,-14.068 25.434,-27.554 34.364,-44.726 5.749,-11.055 8.615,-28.859 5.938,-36.891 -0.26,-0.78 -0.934,-1.52 -1.008,-1.107 m -93.134,27.823 c -9.865,2.711 -15.574,15.435 -11.498,25.623 6.466,16.161 25.051,15.298 30.806,-1.43 4.326,-12.572 -7.533,-27.43 -19.308,-24.193 m -39.774,88.153 c -3.672,0.558 -0.333,-1.14 -39.21,19.945 -35.776,19.405 -34.534,18.811 -39.333,18.811 -17.817,10e-4 -24.145,-22.838 -9,-32.483 1.571,-1 1.946,-1.774 1.213,-2.507 -1.284,-1.284 -6.803,2.942 -9.265,7.095 -8.239,13.896 1.841,31.062 17.845,30.391 4.934,-0.206 4.157,0.169 40.568,-19.587 36.542,-19.827 34.946,-19.039 38.906,-19.216 12.725,-0.57 20.32,12.442 14.273,24.45 -4.907,9.745 -18.111,13.636 -27.166,8.007 -1.441,-0.896 -2.417,-0.907 -2.696,-0.03 -0.77,2.426 7.427,5.389 13.855,5.008 18.272,-1.082 27.558,-23.5 14.638,-35.339 -3.783,-3.466 -9.678,-5.298 -14.628,-4.545 m 69.497,28.024 c -3.178,18.013 -12.928,32.293 -32.563,47.689 -6.798,5.33 -7.652,6.378 -9.033,11.078 -3.372,11.475 -1.215,24.08 6.056,35.387 1.818,2.827 1.476,2.83 3.86,-0.034 14.135,-16.983 24.836,-45.996 30.552,-82.831 1.656,-10.674 2.488,-19.002 1.128,-11.289 m 15.217,10.424 c -3.404,1.091 -5.262,5.475 -3.76,8.871 1.834,4.147 -0.978,12.259 -8.689,25.061 -3.557,5.904 -4.205,7.305 -4.212,9.103 -0.015,3.658 3.843,7.376 8.049,7.757 6.463,0.586 11.05,-7.007 12.279,-20.327 0.445,-4.821 0.991,-6.385 2.983,-8.546 3.495,-3.792 8.262,-0.524 9.146,6.267 1.136,8.74 9.028,10.508 12.805,2.868 1.998,-4.041 3.625,-5.88 4.804,-5.428 1.219,0.468 2.161,5.395 1.773,9.271 -1.33,13.279 9.179,23.378 17.005,16.342 3.181,-2.861 2.426,-6.231 -3.481,-15.518 -3.525,-5.543 -3.953,-6.718 -3.952,-10.856 0,-3.375 0.657,-6.576 2.161,-10.533 2.86,-7.527 0.193,-14.462 -4.766,-12.391 -1.522,0.637 -4.666,3.125 -6.102,4.831 -3.979,4.725 -7.391,6.5 -12.476,6.489 -5.3,-0.011 -8.538,-1.77 -12.157,-6.603 -3.903,-5.213 -8.163,-7.698 -11.41,-6.658"
           stroke="none"
           fill="#fcba14"
           fill-rule="evenodd" />
        <path
           id="path1"
           d="m 244.733,33.255 c 0.33,0.063 0.87,0.063 1.2,0 0.33,-0.064 0.06,-0.116 -0.6,-0.116 -0.66,0 -0.93,0.052 -0.6,0.116 m 10.2,4.212 c 0.498,0.513 0.965,0.933 1.038,0.933 0.074,0 -0.273,-0.42 -0.771,-0.933 -0.498,-0.514 -0.965,-0.934 -1.038,-0.934 -0.073,0 0.274,0.42 0.771,0.934 m -25.6,0.216 c 0,0.046 0.39,0.436 0.867,0.867 l 0.867,0.783 -0.784,-0.866 c -0.73,-0.808 -0.95,-0.99 -0.95,-0.784 m 5.184,1.584 -0.784,0.866 0.867,-0.783 c 0.477,-0.431 0.867,-0.821 0.867,-0.867 0,-0.206 -0.22,-0.024 -0.95,0.784 M 205.143,47.6 c 0.002,0.733 0.054,1.002 0.115,0.596 0.061,-0.405 0.06,-1.005 -0.004,-1.333 -0.063,-0.328 -0.113,0.004 -0.111,0.737 M 286.6,47.086 c -0.11,0.111 -0.2,0.507 -0.2,0.878 0,0.486 0.081,0.595 0.289,0.387 0.159,-0.159 0.249,-0.555 0.2,-0.879 -0.049,-0.324 -0.179,-0.498 -0.289,-0.386 M 181.667,50.8 c 0.003,0.587 0.058,0.795 0.122,0.464 0.063,-0.332 0.061,-0.812 -0.006,-1.067 -0.067,-0.255 -0.119,0.016 -0.116,0.603 m 90.939,3.067 c 0,0.66 0.052,0.93 0.116,0.6 0.063,-0.33 0.063,-0.87 0,-1.2 -0.064,-0.33 -0.116,-0.06 -0.116,0.6 m -0.834,1.2 c -0.025,0.293 -0.121,0.833 -0.212,1.2 -0.128,0.513 -0.092,0.597 0.156,0.367 0.18,-0.167 0.274,-0.699 0.213,-1.2 -0.061,-0.495 -0.131,-0.661 -0.157,-0.367 m -89.838,1.6 c 0.003,0.586 0.057,0.795 0.121,0.463 0.064,-0.331 0.062,-0.811 -0.005,-1.066 -0.067,-0.255 -0.119,0.016 -0.116,0.603 m -0.8,1.6 c 0.003,0.586 0.057,0.795 0.121,0.463 0.064,-0.331 0.062,-0.811 -0.005,-1.066 -0.067,-0.255 -0.119,0.016 -0.116,0.603 m 91.733,1.866 c 0.003,0.587 0.058,0.796 0.122,0.464 0.063,-0.332 0.061,-0.812 -0.006,-1.067 -0.067,-0.255 -0.119,0.017 -0.116,0.603 m -0.8,1.6 c 0.003,0.587 0.058,0.796 0.122,0.464 0.063,-0.332 0.061,-0.812 -0.006,-1.067 -0.067,-0.255 -0.119,0.017 -0.116,0.603 m -89.866,0.8 c 0.003,0.587 0.057,0.796 0.121,0.464 0.064,-0.332 0.061,-0.812 -0.005,-1.067 -0.067,-0.255 -0.119,0.017 -0.116,0.603 m 123.728,0.134 c 0,0.513 0.054,0.723 0.121,0.466 0.068,-0.256 0.068,-0.676 0,-0.933 -0.067,-0.257 -0.121,-0.047 -0.121,0.467 m 12.571,0.124 c -0.083,0.215 -0.088,0.545 -0.013,0.734 0.076,0.188 0.147,0.059 0.159,-0.287 0.015,-0.454 0.135,-0.584 0.435,-0.47 0.237,0.091 0.344,0.047 0.25,-0.104 -0.238,-0.387 -0.659,-0.322 -0.831,0.127 m -137.099,1.342 c 0.003,0.587 0.057,0.796 0.121,0.464 0.064,-0.332 0.061,-0.812 -0.005,-1.067 -0.067,-0.255 -0.119,0.017 -0.116,0.603 m -7.865,1.122 c 0.332,0.064 0.812,0.062 1.067,-0.005 0.255,-0.067 -0.016,-0.119 -0.603,-0.116 -0.587,0.003 -0.795,0.057 -0.464,0.121 m 11.734,0.267 c 0.331,0.064 0.811,0.061 1.066,-0.005 0.255,-0.067 -0.016,-0.119 -0.603,-0.116 -0.586,0.003 -0.795,0.057 -0.463,0.121 m 87.869,0.878 c 0,0.66 0.052,0.93 0.116,0.6 0.063,-0.33 0.063,-0.87 0,-1.2 -0.064,-0.33 -0.116,-0.06 -0.116,0.6 m -86.672,-0.076 c 0.403,0.061 1.063,0.061 1.466,0 0.404,-0.061 0.074,-0.111 -0.733,-0.111 -0.807,0 -1.137,0.05 -0.733,0.111 m -8.397,0.265 c 0.331,0.063 0.811,0.061 1.066,-0.006 0.255,-0.067 -0.016,-0.119 -0.603,-0.116 -0.586,0.003 -0.795,0.058 -0.463,0.122 m 94.264,1.544 c 0.003,0.587 0.057,0.796 0.121,0.464 0.064,-0.332 0.062,-0.812 -0.005,-1.067 -0.067,-0.255 -0.119,0.017 -0.116,0.603 m 47.995,0.134 c 0,0.513 0.054,0.723 0.121,0.466 0.068,-0.256 0.068,-0.676 0,-0.933 -0.067,-0.257 -0.121,-0.047 -0.121,0.467 m -137.867,0.266 c 0,0.514 0.055,0.724 0.122,0.467 0.067,-0.257 0.067,-0.677 0,-0.933 -0.067,-0.257 -0.122,-0.047 -0.122,0.466 m 127.316,-0.089 c -0.098,0.098 -0.176,0.308 -0.174,0.467 0.003,0.182 0.079,0.171 0.207,-0.03 0.112,-0.176 0.98,-0.362 1.929,-0.415 l 1.727,-0.097 -1.756,-0.051 c -0.965,-0.028 -1.835,0.029 -1.933,0.126 M 181.667,70 c 0.003,0.587 0.058,0.795 0.122,0.464 0.063,-0.332 0.061,-0.812 -0.006,-1.067 -0.067,-0.255 -0.119,0.016 -0.116,0.603 m 95.86,-0.474 c 0.474,0.059 1.314,0.06 1.867,0.002 0.553,-0.058 0.166,-0.106 -0.861,-0.107 -1.026,-0.001 -1.479,0.046 -1.006,0.105 M 149.943,72.4 c 0.002,0.733 0.054,1.002 0.115,0.596 0.061,-0.405 0.06,-1.005 -0.004,-1.333 -0.063,-0.328 -0.113,0.004 -0.111,0.737 m 123.458,0.267 c 0.003,0.586 0.057,0.795 0.121,0.463 0.064,-0.331 0.061,-0.811 -0.005,-1.066 -0.067,-0.255 -0.119,0.016 -0.116,0.603 m -130.121,1.2 c 0,0.806 0.05,1.136 0.111,0.733 0.061,-0.403 0.061,-1.063 0,-1.467 -0.061,-0.403 -0.111,-0.073 -0.111,0.734 M 272.606,74.4 c 0,0.66 0.052,0.93 0.116,0.6 0.063,-0.33 0.063,-0.87 0,-1.2 -0.064,-0.33 -0.116,-0.06 -0.116,0.6 m -89.872,0.133 c 0.003,0.587 0.057,0.796 0.121,0.464 0.064,-0.332 0.062,-0.812 -0.005,-1.067 -0.067,-0.255 -0.119,0.017 -0.116,0.603 M 83.267,74.85 c 0.256,0.068 0.676,0.068 0.933,0 0.257,-0.067 0.047,-0.121 -0.467,-0.121 -0.513,0 -0.723,0.054 -0.466,0.121 m 98.667,1.283 c 0.003,0.587 0.057,0.796 0.121,0.464 0.064,-0.332 0.062,-0.812 -0.005,-1.067 -0.067,-0.255 -0.119,0.017 -0.116,0.603 M 306.729,76 c 0,0.513 0.054,0.723 0.121,0.467 0.068,-0.257 0.068,-0.677 0,-0.934 -0.067,-0.256 -0.121,-0.046 -0.121,0.467 m 13.6,0.8 c 0,0.513 0.054,0.723 0.121,0.467 0.068,-0.257 0.068,-0.677 0,-0.934 -0.067,-0.256 -0.121,-0.046 -0.121,0.467 m -68.796,-0.076 c 0.404,0.061 1.064,0.061 1.467,0 0.403,-0.061 0.073,-0.111 -0.733,-0.111 -0.807,0 -1.137,0.05 -0.734,0.111 m -108.26,1.143 c 0,0.66 0.052,0.93 0.115,0.6 0.064,-0.33 0.064,-0.87 0,-1.2 -0.063,-0.33 -0.115,-0.06 -0.115,0.6 m 67.194,-0.35 c 0.256,0.067 0.676,0.067 0.933,0 0.257,-0.067 0.047,-0.122 -0.467,-0.122 -0.513,0 -0.723,0.055 -0.466,0.122 m 63.2,1.55 c 0.003,0.586 0.058,0.795 0.122,0.463 0.063,-0.331 0.061,-0.811 -0.006,-1.066 -0.067,-0.255 -0.119,0.016 -0.116,0.603 m -0.8,1.6 c 0.003,0.586 0.058,0.795 0.122,0.463 0.063,-0.331 0.061,-0.811 -0.006,-1.066 -0.067,-0.255 -0.119,0.016 -0.116,0.603 M 100.6,80.45 c 0.257,0.068 0.677,0.068 0.933,0 0.257,-0.067 0.047,-0.121 -0.466,-0.121 -0.514,0 -0.724,0.054 -0.467,0.121 m 2.4,0 c 0.257,0.068 0.677,0.068 0.933,0 0.257,-0.067 0.047,-0.121 -0.466,-0.121 -0.514,0 -0.724,0.054 -0.467,0.121 m -30.2,1.283 c -0.648,0.66 -1.118,1.2 -1.044,1.2 0.073,0 0.663,-0.54 1.311,-1.2 0.647,-0.66 1.117,-1.2 1.044,-1.2 -0.073,0 -0.663,0.54 -1.311,1.2 M 182.201,82 c 0.003,0.587 0.057,0.795 0.121,0.464 0.064,-0.332 0.061,-0.812 -0.005,-1.067 -0.067,-0.255 -0.119,0.016 -0.116,0.603 m 57.649,0.467 -0.783,0.866 0.866,-0.783 c 0.477,-0.431 0.867,-0.821 0.867,-0.867 0,-0.206 -0.22,-0.024 -0.95,0.784 m 34.043,2.733 c 0.008,0.931 0.045,0.994 0.287,0.494 0.193,-0.4 0.19,-0.722 -0.01,-1.067 -0.239,-0.411 -0.285,-0.314 -0.277,0.573 m -0.754,1.733 c 0,0.66 0.052,0.93 0.116,0.6 0.063,-0.33 0.063,-0.87 0,-1.2 -0.064,-0.33 -0.116,-0.06 -0.116,0.6 m -45.212,3.126 c 0.474,0.059 1.314,0.06 1.867,0.002 0.553,-0.057 0.166,-0.106 -0.861,-0.107 -1.026,-10e-4 -1.479,0.046 -1.006,0.105 m -59.66,5.758 c 0,0.046 0.39,0.436 0.866,0.866 L 170,97.467 169.217,96.6 c -0.73,-0.808 -0.95,-0.989 -0.95,-0.783 m 132.394,5.316 -2.394,2.467 2.466,-2.394 c 2.291,-2.224 2.588,-2.539 2.395,-2.539 -0.04,0 -1.15,1.11 -2.467,2.466 m -136.928,5.084 c 0,0.046 0.39,0.436 0.867,0.866 l 0.867,0.784 -0.784,-0.867 c -0.73,-0.808 -0.95,-0.989 -0.95,-0.783 m 81.929,1.25 c 0,0.513 0.055,0.723 0.122,0.466 0.067,-0.256 0.067,-0.676 0,-0.933 -0.067,-0.257 -0.122,-0.047 -0.122,0.467 m -33.328,1.466 c 0.003,0.587 0.057,0.796 0.121,0.464 0.064,-0.332 0.062,-0.812 -0.005,-1.067 -0.067,-0.255 -0.119,0.017 -0.116,0.603 m -44.067,2.134 c 0.497,0.513 0.964,0.933 1.038,0.933 0.073,0 -0.274,-0.42 -0.772,-0.933 -0.497,-0.514 -0.964,-0.934 -1.038,-0.934 -0.073,0 0.274,0.42 0.772,0.934 m 77.395,-0.134 c 0,0.514 0.055,0.724 0.122,0.467 0.067,-0.257 0.067,-0.677 0,-0.933 -0.067,-0.257 -0.122,-0.047 -0.122,0.466 m -72.729,4.534 c 0.573,0.586 1.102,1.066 1.175,1.066 0.074,0 -0.335,-0.48 -0.908,-1.066 -0.573,-0.587 -1.102,-1.067 -1.175,-1.067 -0.073,0 0.335,0.48 0.908,1.067 m 70.587,2.272 c -0.319,0.657 -0.524,1.194 -0.455,1.194 0.18,0 1.258,-2.166 1.137,-2.286 -0.056,-0.056 -0.362,0.435 -0.682,1.092 M 176,118.267 c 0.498,0.513 0.965,0.933 1.038,0.933 0.073,0 -0.274,-0.42 -0.771,-0.933 -0.498,-0.514 -0.965,-0.934 -1.038,-0.934 -0.074,0 0.273,0.42 0.771,0.934 m 42.4,5.066 c 0.797,0.807 1.508,1.467 1.582,1.467 0.073,0 -0.519,-0.66 -1.315,-1.467 -0.797,-0.806 -1.509,-1.466 -1.582,-1.466 -0.073,0 0.518,0.66 1.315,1.466 m 21.333,-0.266 c -0.647,0.66 -1.117,1.2 -1.044,1.2 0.073,0 0.663,-0.54 1.311,-1.2 0.648,-0.66 1.118,-1.2 1.044,-1.2 -0.073,0 -0.663,0.54 -1.311,1.2 m -56.8,1.283 c 0,0.046 0.39,0.436 0.867,0.867 l 0.867,0.783 -0.784,-0.867 c -0.73,-0.808 -0.95,-0.989 -0.95,-0.783 m 3.467,3.25 c 0.498,0.513 0.965,0.933 1.038,0.933 0.073,0 -0.274,-0.42 -0.771,-0.933 -0.498,-0.513 -0.965,-0.933 -1.038,-0.933 -0.074,0 0.273,0.42 0.771,0.933 m 5.733,5.467 c 1.756,1.76 3.252,3.2 3.325,3.2 0.074,0 -1.303,-1.44 -3.058,-3.2 -1.755,-1.76 -3.252,-3.2 -3.325,-3.2 -0.073,0 1.303,1.44 3.058,3.2 m 97.453,2.333 -0.919,1 1,-0.919 c 0.55,-0.505 1,-0.955 1,-1 0,-0.204 -0.226,-0.012 -1.081,0.919 m -67.319,1.4 c 0.573,0.587 1.101,1.067 1.175,1.067 0.073,0 -0.336,-0.48 -0.909,-1.067 -0.573,-0.587 -1.101,-1.067 -1.175,-1.067 -0.073,0 0.336,0.48 0.909,1.067 m 59.723,6.2 -1.323,1.4 1.4,-1.323 c 0.77,-0.728 1.4,-1.358 1.4,-1.4 0,-0.199 -0.247,0.022 -1.477,1.323 m -39.59,0.867 c 0.945,0.953 1.778,1.733 1.851,1.733 0.074,0 -0.639,-0.78 -1.584,-1.733 -0.945,-0.954 -1.778,-1.734 -1.852,-1.734 -0.073,0 0.64,0.78 1.585,1.734 m -12.533,0.533 c 0.796,0.807 1.508,1.467 1.581,1.467 0.074,0 -0.518,-0.66 -1.315,-1.467 -0.796,-0.807 -1.508,-1.467 -1.581,-1.467 -0.074,0 0.518,0.66 1.315,1.467 M 44.6,144.984 c 0.257,0.067 0.677,0.067 0.933,0 0.257,-0.067 0.047,-0.122 -0.466,-0.122 -0.514,0 -0.724,0.055 -0.467,0.122 m 233.387,1.749 -1.054,1.134 1.134,-1.054 c 1.054,-0.981 1.256,-1.213 1.054,-1.213 -0.044,0 -0.554,0.51 -1.134,1.133 m -106.983,-0.142 c 0.405,0.062 1.005,0.06 1.333,-0.003 0.328,-0.064 -0.004,-0.114 -0.737,-0.112 -0.733,0.002 -1.002,0.054 -0.596,0.115 m 101.791,5.076 -2.528,2.6 2.6,-2.528 c 1.43,-1.391 2.6,-2.561 2.6,-2.6 0,-0.194 -0.324,0.113 -2.672,2.528 m 8.538,-0.867 c -0.647,0.66 -1.117,1.2 -1.044,1.2 0.073,0 0.663,-0.54 1.311,-1.2 0.648,-0.66 1.118,-1.2 1.044,-1.2 -0.073,0 -0.663,0.54 -1.311,1.2 m 27.2,0.267 c 0.498,0.513 0.965,0.933 1.038,0.933 0.074,0 -0.273,-0.42 -0.771,-0.933 -0.498,-0.514 -0.965,-0.934 -1.038,-0.934 -0.073,0 0.274,0.42 0.771,0.934 m -187.53,-0.478 c 0.332,0.063 0.812,0.061 1.067,-0.006 0.255,-0.067 -0.017,-0.119 -0.603,-0.116 -0.587,0.003 -0.796,0.058 -0.464,0.122 m 2.133,0 c 0.332,0.063 0.812,0.061 1.067,-0.006 0.255,-0.067 -0.016,-0.119 -0.603,-0.116 -0.587,0.003 -0.795,0.058 -0.464,0.122 m 66.997,4.211 c 0.498,0.513 0.965,0.933 1.038,0.933 0.074,0 -0.273,-0.42 -0.771,-0.933 -0.498,-0.513 -0.965,-0.933 -1.038,-0.933 -0.073,0 0.274,0.42 0.771,0.933 m -86.816,0.733 -0.784,0.867 0.867,-0.783 c 0.808,-0.73 0.989,-0.95 0.783,-0.95 -0.046,0 -0.436,0.39 -0.866,0.866 m 39.872,0.8 c 0.654,0.697 1.224,1.267 1.267,1.267 0.2,0 -0.012,-0.239 -1.189,-1.344 l -1.267,-1.189 1.189,1.266 m 8.802,2.267 -1.458,1.533 1.534,-1.457 c 1.424,-1.354 1.655,-1.609 1.457,-1.609 -0.041,0 -0.731,0.69 -1.533,1.533 m 138.769,11.267 c 0,1.246 0.046,1.756 0.102,1.133 0.056,-0.623 0.056,-1.643 0,-2.267 -0.056,-0.623 -0.102,-0.113 -0.102,1.134 m -94.67,0.533 c 0,1.1 0.047,1.55 0.104,1 0.058,-0.55 0.058,-1.45 0,-2 -0.057,-0.55 -0.104,-0.1 -0.104,1 m 15.172,-0.533 c 0,0.513 0.055,0.723 0.122,0.466 0.067,-0.256 0.067,-0.676 0,-0.933 -0.067,-0.257 -0.122,-0.047 -0.122,0.467 m -112.777,4.266 c 0,0.954 0.049,1.344 0.108,0.867 0.059,-0.477 0.059,-1.257 0,-1.733 -0.059,-0.477 -0.108,-0.087 -0.108,0.866 m 210.702,-0.466 -1.054,1.133 1.134,-1.054 c 1.054,-0.98 1.256,-1.213 1.054,-1.213 -0.044,0 -0.554,0.51 -1.134,1.134 m -228.858,1.266 c 0,0.514 0.054,0.724 0.121,0.467 0.068,-0.257 0.068,-0.677 0,-0.933 -0.067,-0.257 -0.121,-0.047 -0.121,0.466 m 176.502,2.52 c -0.019,0.797 0.065,1.22 0.211,1.067 0.135,-0.142 0.149,-0.721 0.03,-1.32 l -0.211,-1.067 -0.03,1.32 m -45.569,1.214 c 0,0.513 0.055,0.723 0.122,0.466 0.067,-0.256 0.067,-0.676 0,-0.933 -0.067,-0.257 -0.122,-0.047 -0.122,0.467 m -25.329,-0.083 c 0.257,0.067 0.677,0.067 0.934,0 0.256,-0.067 0.046,-0.122 -0.467,-0.122 -0.513,0 -0.723,0.055 -0.467,0.122 m 3.603,0.005 c 0.332,0.063 0.812,0.061 1.067,-0.006 0.255,-0.067 -0.016,-0.119 -0.603,-0.116 -0.587,0.003 -0.795,0.058 -0.464,0.122 m -9.869,1.83 c -1.034,0.561 -0.917,0.755 0.133,0.221 1.005,-0.512 1.183,-0.644 0.844,-0.629 -0.134,0.006 -0.574,0.189 -0.977,0.408 m 21.389,3.381 c 0.653,0.697 1.223,1.267 1.266,1.267 0.2,0 -0.011,-0.24 -1.189,-1.345 l -1.266,-1.189 1.189,1.267 m -27.789,0.086 c -0.997,0.541 -0.937,0.766 0.066,0.247 0.44,-0.227 0.8,-0.47 0.8,-0.54 0,-0.171 -0.028,-0.162 -0.866,0.293 m 25.8,1.714 c 0.573,0.587 1.101,1.067 1.175,1.067 0.073,0 -0.336,-0.48 -0.909,-1.067 -0.573,-0.587 -1.101,-1.067 -1.175,-1.067 -0.073,0 0.336,0.48 0.909,1.067 m 116.533,0 c 0.573,0.587 1.102,1.067 1.175,1.067 0.073,0 -0.335,-0.48 -0.908,-1.067 -0.573,-0.587 -1.102,-1.067 -1.175,-1.067 -0.074,0 0.335,0.48 0.908,1.067 m -140.733,0.419 c -0.997,0.541 -0.937,0.766 0.066,0.248 0.44,-0.228 0.8,-0.471 0.8,-0.541 0,-0.171 -0.028,-0.161 -0.866,0.293 m 76.928,0.914 c 0,0.514 0.055,0.724 0.122,0.467 0.067,-0.257 0.067,-0.677 0,-0.933 -0.067,-0.257 -0.122,-0.047 -0.122,0.466 m -84.928,0.42 c -0.997,0.54 -0.937,0.766 0.066,0.247 0.44,-0.228 0.8,-0.471 0.8,-0.54 0,-0.172 -0.028,-0.162 -0.866,0.293 m 35.185,2.377 c 0.244,0.511 0.491,0.883 0.549,0.825 0.122,-0.122 -0.688,-1.755 -0.87,-1.755 -0.067,0 0.077,0.418 0.321,0.93 m -33.585,-0.244 c -0.997,0.541 -0.937,0.766 0.066,0.247 0.44,-0.227 0.8,-0.47 0.8,-0.54 0,-0.171 -0.028,-0.162 -0.866,0.293 m -10.934,2.933 c -0.997,0.541 -0.936,0.766 0.067,0.248 0.44,-0.228 0.8,-0.471 0.8,-0.541 0,-0.171 -0.029,-0.161 -0.867,0.293 m 94.262,1.714 c 0,0.514 0.055,0.724 0.122,0.467 0.067,-0.257 0.067,-0.677 0,-0.933 -0.067,-0.257 -0.122,-0.047 -0.122,0.466 m -92.662,0.42 c -0.997,0.54 -0.936,0.766 0.067,0.247 0.44,-0.228 0.8,-0.471 0.8,-0.54 0,-0.172 -0.029,-0.162 -0.867,0.293 m 44.677,2.114 c 0.002,0.733 0.053,1.001 0.115,0.596 0.061,-0.405 0.059,-1.005 -0.004,-1.333 -0.063,-0.328 -0.113,0.003 -0.111,0.737 m 52.47,2.555 c -0.197,1.345 -0.224,2.274 -0.071,2.427 0.153,0.153 0.32,-0.636 0.436,-2.062 0.241,-2.97 0.044,-3.167 -0.365,-0.365 m -103.547,-1.203 c -0.997,0.541 -0.936,0.766 0.067,0.248 0.44,-0.228 0.8,-0.471 0.8,-0.541 0,-0.171 -0.029,-0.161 -0.867,0.293 m -63.045,2.114 c 10e-4,1.027 0.049,1.414 0.107,0.861 0.057,-0.553 0.056,-1.393 -0.003,-1.867 -0.058,-0.473 -0.106,-0.02 -0.104,1.006 m -2.672,0 c 10e-4,0.88 0.051,1.208 0.111,0.729 0.059,-0.479 0.058,-1.199 -0.003,-1.6 -0.061,-0.401 -0.11,-0.009 -0.108,0.871 m 62.784,-0.514 c -0.997,0.541 -0.936,0.766 0.067,0.248 0.44,-0.228 0.8,-0.471 0.8,-0.541 0,-0.171 -0.029,-0.161 -0.867,0.293 m -8,1.334 c -0.997,0.54 -0.936,0.766 0.067,0.247 0.44,-0.228 0.8,-0.471 0.8,-0.54 0,-0.172 -0.029,-0.162 -0.867,0.293 m 159.65,0.447 -0.783,0.867 0.866,-0.784 c 0.808,-0.73 0.99,-0.95 0.784,-0.95 -0.046,0 -0.436,0.39 -0.867,0.867 m -45.671,1.133 c 0.004,0.294 0.104,0.834 0.221,1.2 l 0.214,0.667 0.007,-0.667 c 0.005,-0.366 -0.095,-0.906 -0.221,-1.2 l -0.229,-0.533 0.008,0.533 M 143.4,203.086 c -0.997,0.541 -0.936,0.766 0.067,0.247 0.44,-0.227 0.8,-0.47 0.8,-0.54 0,-0.171 -0.029,-0.162 -0.867,0.293 m -8,1.333 c -0.997,0.541 -0.936,0.766 0.067,0.248 0.44,-0.228 0.8,-0.471 0.8,-0.541 0,-0.171 -0.029,-0.161 -0.867,0.293 m 120.395,1.448 c 0,0.513 0.055,0.723 0.122,0.466 0.067,-0.256 0.067,-0.676 0,-0.933 -0.067,-0.257 -0.122,-0.047 -0.122,0.467 m -123.328,0.152 c -0.997,0.541 -0.937,0.766 0.066,0.248 0.44,-0.228 0.8,-0.471 0.8,-0.541 0,-0.171 -0.028,-0.161 -0.866,0.293 m 75.062,0.648 c 0,0.513 0.054,0.723 0.121,0.466 0.068,-0.256 0.068,-0.676 0,-0.933 -0.067,-0.257 -0.121,-0.047 -0.121,0.467 M 137,206.553 c -0.997,0.54 -0.936,0.766 0.067,0.247 0.44,-0.228 0.8,-0.471 0.8,-0.54 0,-0.172 -0.029,-0.162 -0.867,0.293 m -2.933,1.6 c -0.997,0.54 -0.937,0.766 0.066,0.247 0.44,-0.228 0.8,-0.471 0.8,-0.54 0,-0.172 -0.028,-0.162 -0.866,0.293 M 88.8,208.369 c 0,0.286 0.793,1.764 0.947,1.764 0.073,0 -0.065,-0.39 -0.307,-0.866 -0.495,-0.974 -0.64,-1.177 -0.64,-0.898 m 37.267,1.117 c -0.997,0.541 -0.937,0.766 0.066,0.247 0.44,-0.227 0.8,-0.47 0.8,-0.54 0,-0.171 -0.028,-0.162 -0.866,0.293 m 71.923,0.981 -1.323,1.4 1.4,-1.324 c 1.301,-1.229 1.522,-1.476 1.323,-1.476 -0.042,0 -0.672,0.63 -1.4,1.4 m 9.301,1.666 c 0.001,1.174 0.048,1.62 0.105,0.993 0.056,-0.627 0.055,-1.587 -0.002,-2.133 -0.057,-0.546 -0.104,-0.033 -0.103,1.14 m -7.3,0.067 -1.458,1.533 1.534,-1.457 c 1.424,-1.354 1.655,-1.609 1.457,-1.609 -0.041,0 -0.731,0.69 -1.533,1.533 m -105.458,0.067 c 0.573,0.586 1.102,1.066 1.175,1.066 0.074,0 -0.335,-0.48 -0.908,-1.066 -0.573,-0.587 -1.102,-1.067 -1.175,-1.067 -0.073,0 0.335,0.48 0.908,1.067 m 33.134,-0.648 c -0.997,0.541 -0.937,0.766 0.066,0.248 0.44,-0.228 0.8,-0.471 0.8,-0.541 0,-0.171 -0.028,-0.161 -0.866,0.293 m 47.32,1.501 c -0.434,0.433 -0.403,0.658 0.117,0.858 0.344,0.131 0.374,0.09 0.14,-0.192 -0.22,-0.265 -0.216,-0.44 0.016,-0.672 0.172,-0.173 0.253,-0.314 0.18,-0.314 -0.073,0 -0.277,0.144 -0.453,0.32 m -82.32,1.013 c 0.573,0.587 1.101,1.067 1.175,1.067 0.073,0 -0.336,-0.48 -0.909,-1.067 -0.573,-0.586 -1.101,-1.066 -1.175,-1.066 -0.073,0 0.336,0.48 0.909,1.066 m 24.066,0.42 c -0.997,0.54 -0.936,0.766 0.067,0.247 0.44,-0.228 0.8,-0.471 0.8,-0.54 0,-0.172 -0.029,-0.162 -0.867,0.293 m 52.454,0.98 -1.054,1.134 1.134,-1.054 c 1.054,-0.981 1.256,-1.213 1.054,-1.213 -0.044,0 -0.554,0.51 -1.134,1.133 m -47.32,1.4 c 0.796,0.807 1.508,1.467 1.581,1.467 0.074,0 -0.518,-0.66 -1.315,-1.467 -0.796,-0.806 -1.508,-1.466 -1.581,-1.466 -0.074,0 0.518,0.66 1.315,1.466 m 61.8,-0.74 c 0.476,0.059 1.256,0.059 1.733,0 0.477,-0.059 0.087,-0.108 -0.867,-0.108 -0.953,0 -1.343,0.049 -0.866,0.108 m -77.6,1.336 c 0.623,0.056 1.643,0.056 2.266,0 0.624,-0.057 0.114,-0.102 -1.133,-0.102 -1.247,0 -1.757,0.045 -1.133,0.102 m 101.221,2.071 c 10e-4,1.027 0.049,1.414 0.107,0.861 0.057,-0.554 0.056,-1.394 -0.003,-1.867 -0.058,-0.473 -0.106,-0.021 -0.104,1.006 m -23.218,-0.742 c 0.406,0.061 1.006,0.06 1.334,-0.004 0.328,-0.063 -0.004,-0.113 -0.737,-0.111 -0.734,0.002 -1.002,0.054 -0.597,0.115 M 167.726,221 166,222.8 l 1.8,-1.726 c 0.99,-0.949 1.8,-1.759 1.8,-1.8 0,-0.196 -0.272,0.054 -1.874,1.726 m -61.659,-0.805 c 0.623,0.056 1.643,0.056 2.266,0 0.624,-0.056 0.114,-0.102 -1.133,-0.102 -1.247,0 -1.757,0.046 -1.133,0.102 m 16.2,0.872 c 0.573,0.586 1.101,1.066 1.175,1.066 0.073,0 -0.336,-0.48 -0.909,-1.066 -0.573,-0.587 -1.101,-1.067 -1.175,-1.067 -0.073,0 0.336,0.48 0.909,1.067 m 3.6,-0.45 c 0,0.046 0.39,0.436 0.866,0.866 l 0.867,0.784 -0.783,-0.867 c -0.73,-0.808 -0.95,-0.989 -0.95,-0.783 m 36.12,2.116 -1.054,1.134 1.134,-1.054 c 1.054,-0.981 1.256,-1.213 1.054,-1.213 -0.044,0 -0.554,0.51 -1.134,1.133 m 88.19,-0.455 c -0.447,0.981 -0.362,1.19 0.121,0.298 0.226,-0.416 0.361,-0.806 0.3,-0.867 -0.061,-0.061 -0.251,0.195 -0.421,0.569 m 56.873,0.722 -0.783,0.867 0.866,-0.784 c 0.808,-0.73 0.99,-0.95 0.784,-0.95 -0.046,0 -0.436,0.39 -0.867,0.867 m -41.111,0.467 c 0,0.66 0.052,0.93 0.116,0.6 0.063,-0.33 0.063,-0.87 0,-1.2 -0.064,-0.33 -0.116,-0.06 -0.116,0.6 m -58.41,1.066 c 0,0.514 0.054,0.724 0.121,0.467 0.068,-0.257 0.068,-0.677 0,-0.933 -0.067,-0.257 -0.121,-0.047 -0.121,0.466 m 40.871,1.334 c -0.228,0.44 -0.354,0.8 -0.28,0.8 0.073,0 0.319,-0.36 0.547,-0.8 0.227,-0.44 0.353,-0.8 0.28,-0.8 -0.073,0 -0.319,0.36 -0.547,0.8 m 70.329,0.266 c 0,0.514 0.054,0.724 0.121,0.467 0.068,-0.257 0.068,-0.677 0,-0.933 -0.067,-0.257 -0.121,-0.047 -0.121,0.466 m -14.612,0.334 -0.784,0.866 0.867,-0.783 c 0.808,-0.73 0.989,-0.95 0.783,-0.95 -0.046,0 -0.436,0.39 -0.866,0.867 m -252.131,1.2 -0.919,1 1,-0.919 c 0.93,-0.856 1.122,-1.081 0.919,-1.081 -0.045,0 -0.495,0.45 -1,1 m 180.664,5.466 -0.783,0.867 0.866,-0.783 c 0.477,-0.431 0.867,-0.821 0.867,-0.867 0,-0.206 -0.22,-0.025 -0.95,0.783 m 6.667,5.6 -0.784,0.867 0.867,-0.783 c 0.477,-0.431 0.867,-0.821 0.867,-0.867 0,-0.206 -0.22,-0.025 -0.95,0.783 m -13.067,0.8 -0.783,0.867 0.866,-0.783 c 0.477,-0.431 0.867,-0.821 0.867,-0.867 0,-0.206 -0.22,-0.025 -0.95,0.783 m 9.877,2.667 -2.127,2.2 2.2,-2.127 c 2.043,-1.976 2.322,-2.273 2.127,-2.273 -0.04,0 -1.03,0.99 -2.2,2.2 m -4.135,4.133 -1.725,1.8 1.8,-1.725 c 0.99,-0.949 1.8,-1.759 1.8,-1.8 0,-0.197 -0.272,0.053 -1.875,1.725 m -3.206,2.934 -0.919,1 1,-0.919 c 0.93,-0.856 1.122,-1.081 0.919,-1.081 -0.045,0 -0.495,0.45 -1,1 m 76.89,0.466 c 0.002,0.734 0.054,1.002 0.115,0.597 0.062,-0.406 0.06,-1.006 -0.003,-1.334 -0.064,-0.328 -0.114,0.004 -0.112,0.737 m -0.281,6.534 c 0,0.513 0.055,0.723 0.122,0.466 0.067,-0.256 0.067,-0.676 0,-0.933 -0.067,-0.257 -0.122,-0.047 -0.122,0.467 m -236.401,0.192 c 0.473,0.059 1.313,0.06 1.867,0.002 0.553,-0.057 0.166,-0.106 -0.861,-0.107 -1.027,-10e-4 -1.479,0.046 -1.006,0.105 m 148.196,2.274 -1.323,1.4 1.4,-1.323 c 0.77,-0.728 1.4,-1.358 1.4,-1.4 0,-0.199 -0.247,0.022 -1.477,1.323 m -127.323,8.6 c 0.497,0.514 0.964,0.934 1.038,0.934 0.073,0 -0.274,-0.42 -0.772,-0.934 -0.497,-0.513 -0.964,-0.933 -1.038,-0.933 -0.073,0 0.274,0.42 0.772,0.933 m 233.052,0.867 -0.919,1 1,-0.919 c 0.931,-0.855 1.123,-1.081 0.919,-1.081 -0.045,0 -0.495,0.45 -1,1 m -110.852,4.733 c 0.003,0.587 0.058,0.796 0.122,0.464 0.063,-0.332 0.061,-0.812 -0.006,-1.067 -0.067,-0.255 -0.119,0.017 -0.116,0.603 m 96.546,6.267 c 0,0.807 0.05,1.137 0.111,0.733 0.061,-0.403 0.061,-1.063 0,-1.466 -0.061,-0.404 -0.111,-0.074 -0.111,0.733 m -96.546,0.667 c 0.003,0.586 0.058,0.795 0.122,0.463 0.063,-0.331 0.061,-0.811 -0.006,-1.066 -0.067,-0.255 -0.119,0.016 -0.116,0.603 m 23.189,2.676 c -0.615,1.242 -1.061,2.257 -0.99,2.257 0.177,0 2.324,-4.299 2.205,-4.418 -0.052,-0.052 -0.599,0.92 -1.215,2.161 m -30.098,-0.01 c 0.001,1.174 0.048,1.62 0.104,0.993 0.057,-0.627 0.056,-1.587 -0.001,-2.133 -0.058,-0.546 -0.104,-0.033 -0.103,1.14 m -28.153,-0.74 c 0.479,0.06 1.199,0.058 1.6,-0.002 0.4,-0.061 0.008,-0.11 -0.872,-0.108 -0.88,0.001 -1.208,0.051 -0.728,0.11 m 6.4,0 c 0.479,0.06 1.199,0.058 1.6,-0.002 0.4,-0.061 0.008,-0.11 -0.872,-0.108 -0.88,0.001 -1.208,0.051 -0.728,0.11 M 99.806,285.6 c 0,0.66 0.052,0.93 0.116,0.6 0.063,-0.33 0.063,-0.87 0,-1.2 -0.064,-0.33 -0.116,-0.06 -0.116,0.6 m 187.994,7.658 c 0.403,0.061 1.063,0.061 1.467,0 0.403,-0.061 0.073,-0.111 -0.734,-0.111 -0.806,0 -1.136,0.05 -0.733,0.111 m -71.267,2.311 c 0,0.286 0.794,1.764 0.947,1.764 0.074,0 -0.065,-0.39 -0.307,-0.866 -0.495,-0.974 -0.64,-1.177 -0.64,-0.898 m 5.252,7.239 c -0.411,0.362 -0.642,0.659 -0.513,0.659 0.129,0 0.517,-0.3 0.861,-0.667 0.797,-0.848 0.621,-0.844 -0.348,0.008 m 48.425,9.859 c 0.002,0.733 0.053,1.001 0.115,0.596 0.061,-0.405 0.059,-1.005 -0.004,-1.333 -0.063,-0.328 -0.113,0.003 -0.111,0.737 m -151.477,1.383 c 0.257,0.068 0.677,0.068 0.934,0 0.256,-0.067 0.046,-0.121 -0.467,-0.121 -0.513,0 -0.723,0.054 -0.467,0.121 m 151.48,1.417 c 0,0.806 0.05,1.136 0.111,0.733 0.061,-0.403 0.061,-1.063 0,-1.467 -0.061,-0.403 -0.111,-0.073 -0.111,0.734 m -48.135,49.027 c 0.41,0.26 3.156,0.227 3.424,-0.041 0.103,-0.102 -0.703,-0.184 -1.791,-0.182 -1.134,0.002 -1.831,0.097 -1.633,0.223 m 74.134,0 c 0.41,0.26 3.156,0.227 3.424,-0.041 0.102,-0.102 -0.704,-0.184 -1.792,-0.182 -1.134,0.002 -1.83,0.097 -1.632,0.223"
           stroke="none"
           fill="#d8dbc3"
           fill-rule="evenodd" />
        <path
           id="path2"
           d="m 242.2,33.745 c -2.774,0.747 -5.862,2.736 -8.419,5.424 -1.835,1.928 -1.713,1.903 -2.677,0.541 -3.997,-5.648 -13.552,-7.358 -19.523,-3.495 -6.046,3.91 -7.778,10.809 -4.667,18.579 0.451,1.125 0.819,2.09 0.819,2.144 0,0.053 -0.72,0.481 -1.6,0.95 -9.04,4.819 -6.141,18.401 4.132,19.36 2.776,0.26 3.744,-0.188 23.068,-10.672 L 251.6,56.667 h 2.667 c 10.308,0 12.052,13.758 2.326,18.347 -2.204,1.04 -5.602,1.198 -7.972,0.371 -2.169,-0.756 -2.168,-0.76 0.464,-4.318 1.303,-1.76 2.371,-3.35 2.375,-3.534 0.009,-0.435 -0.432,-0.43 -0.6,0.007 -0.818,2.13 -11.828,15.305 -14.684,17.57 -2.203,1.747 -4.495,1.002 -8.648,-2.81 -0.626,-0.574 -1.226,-0.954 -1.333,-0.843 -0.623,0.644 5.473,4.905 7.578,5.296 1.576,0.293 4.887,-2.662 10.18,-9.086 1.238,-1.504 2.273,-2.734 2.299,-2.734 0.026,0 0.545,0.24 1.152,0.534 6.694,3.234 14.907,-1.144 16.054,-8.559 0.905,-5.846 -3.283,-10.926 -9.058,-10.988 -2.569,-0.027 -2.433,-0.092 -21.84,10.427 -19.032,10.317 -19.829,10.682 -22.516,10.331 -9.687,-1.268 -12.041,-14.021 -3.396,-18.402 1.661,-0.842 1.511,-0.866 2.126,0.34 0.285,0.559 1.278,2.019 2.206,3.244 2.287,3.02 2.278,3.01 2.631,2.892 0.18,-0.06 -0.246,-0.779 -1.003,-1.695 -7.348,-8.887 -8.684,-18.084 -3.486,-23.99 5.615,-6.379 16.319,-5.725 21.774,1.331 l 1.163,1.504 1.849,-2.006 c 6.359,-6.901 13.983,-7.815 20.155,-2.416 3.057,2.674 4.399,8.706 2.841,12.767 -0.134,0.349 -0.084,0.458 0.172,0.372 0.784,-0.261 1.289,-4.75 0.82,-7.286 -1.242,-6.712 -8.931,-11.409 -15.696,-9.588 m -95.603,4.678 c -6.528,0.69 -16.061,5.343 -16.226,7.92 -0.016,0.251 -0.06,2.437 -0.096,4.857 -0.179,11.749 -3.177,17.326 -12.257,22.801 -2.063,1.244 -4.784,2.9 -6.046,3.68 -6.901,4.266 -14.91,3.788 -24.73,-1.475 -3.547,-1.901 -4.025,-1.831 -8.658,1.281 -5.56,3.733 -8.998,7.616 -11.58,13.077 -1.529,3.235 -1.445,4.412 0.525,7.342 4.321,6.427 6.44,13.926 5.565,19.694 -0.253,1.667 -0.742,2.889 -2.939,7.333 -1.449,2.934 -3.13,6.474 -3.736,7.867 -3.192,7.349 -11.77,12.258 -21.438,12.268 -3.482,0.004 -4.488,0.876 -6.632,5.749 -2.703,6.147 -3.472,10.442 -2.897,16.184 0.489,4.885 0.809,5.379 4.548,7.018 7.191,3.151 12.643,7.877 15.36,13.314 1.25,2.503 1.292,2.694 1.982,9.067 0.175,1.613 0.546,4.253 0.826,5.867 1.337,7.723 1.432,8.731 1.082,11.502 -0.832,6.591 -3.95,11.655 -10.404,16.898 -3.482,2.828 -3.694,3.538 -2.587,8.656 1.51,6.985 3.639,11.067 8.343,15.998 2.507,2.626 3.175,2.838 6.536,2.071 11.829,-2.699 19.615,-0.787 25.814,6.341 1.212,1.394 3.601,3.974 5.309,5.734 8.009,8.25 9.536,15.05 5.998,26.705 -1.21,3.987 -1.051,4.44 2.986,8.495 4.234,4.253 8.311,6.739 13.532,8.252 5.341,1.548 5.57,1.49 9.385,-2.386 7.015,-7.127 14.734,-10.61 20.105,-9.073 4.427,1.267 12.039,3.089 15.066,3.606 8.093,1.383 13.577,6.955 17.192,17.467 1.672,4.861 1.787,4.971 6.221,5.912 6.426,1.364 11.737,1.128 17.497,-0.775 4.972,-1.644 5.312,-2.047 6.025,-7.137 0.98,-6.999 2.908,-11.702 6.226,-15.19 1.32,-1.388 1.31,-1.314 0.302,-2.28 -4.487,-4.299 -7.883,-13.596 -7.679,-21.025 l 0.083,-3.009 -2.8,0.611 C 132.798,294.822 69.813,234.721 81.494,164.27 c 5.585,-33.685 29.055,-63.329 60.299,-76.161 2.951,-1.212 2.773,-0.903 2.137,-3.709 -2.951,-13.017 2.165,-32.77 11.581,-44.718 l 0.776,-0.985 -1.01,-0.28 c -1.154,-0.32 -5.622,-0.317 -8.68,0.006 m 139.7,2.177 c -0.091,1.063 -0.537,7.873 -0.993,15.133 -0.455,7.26 -0.845,13.216 -0.866,13.235 -0.436,0.399 -1.787,-0.382 -2.183,-1.261 -0.586,-1.299 -0.743,-1.297 -1.481,0.016 l -0.594,1.056 -2.022,0.077 -2.023,0.077 -0.976,9.287 c -0.933,8.877 -1.289,11.153 -1.295,8.291 -0.017,-7.205 -1.651,-38.547 -1.992,-38.205 -0.103,0.102 -2.272,19.184 -2.272,19.981 0,0.118 -0.45,0.251 -1,0.297 -0.921,0.076 -1.067,0.208 -1.859,1.683 l -0.859,1.6 -0.008,-3.134 C 265.87,66.827 265.762,65.6 265.6,65.6 c -0.166,0 -0.267,1.511 -0.267,4 0,4.664 0.055,4.725 1.539,1.733 l 1.124,-2.266 h 1.069 c 0.677,0 1.068,-0.122 1.068,-0.334 0.001,-0.956 1.594,-14.683 1.72,-14.808 0.081,-0.081 0.147,0.184 0.147,0.589 0,2.16 1.644,38.686 1.746,38.788 0.331,0.33 0.523,-1.063 1.667,-12.08 l 1.234,-11.889 h 1.917 c 1.851,0 1.935,-0.028 2.437,-0.821 l 0.521,-0.822 0.58,0.984 c 0.421,0.714 0.717,0.948 1.078,0.854 0.383,-0.1 0.602,0.123 0.951,0.971 0.717,1.745 0.823,0.93 1.618,-12.499 0.399,-6.747 0.804,-12.356 0.899,-12.464 0.139,-0.158 1.653,21.321 1.626,23.064 -0.006,0.382 0.23,0.467 1.299,0.467 h 1.307 l 0.479,-1.334 c 0.597,-1.658 0.756,-1.662 1.298,-0.028 0.507,1.526 0.719,1.619 3.676,1.625 l 2.065,0.003 0.364,-0.866 0.364,-0.867 0.179,1.867 c 0.46,4.773 0.501,4.829 1.595,2.125 0.623,-1.537 0.687,-1.6 1.869,-1.836 1.092,-0.218 1.237,-0.332 1.351,-1.067 0.148,-0.954 1.215,-13.373 1.214,-14.133 0,-0.282 0.071,-0.44 0.158,-0.353 0.087,0.087 0.597,7.429 1.133,16.315 0.588,9.736 1.081,16.182 1.242,16.22 0.201,0.047 2.392,-15.059 2.515,-17.338 0.013,-0.243 0.742,-0.333 2.7,-0.333 1.721,0 2.624,-0.096 2.518,-0.267 -0.255,-0.412 -5.731,-0.348 -5.744,0.067 -0.054,1.664 -1.813,13.51 -1.93,13 -0.085,-0.367 -0.58,-7.974 -1.101,-16.905 -1.191,-20.431 -1.15,-20.309 -2.302,-6.935 -1.036,12.023 -0.823,10.944 -2.196,11.152 -1.004,0.152 -1.183,0.294 -1.641,1.296 -0.593,1.297 -0.566,1.373 -0.892,-2.548 -0.229,-2.756 -0.498,-2.987 -1.171,-1.004 -0.666,1.958 -0.661,1.955 -3.025,1.7 L 293.535,68.4 292.87,66.6 c -0.365,-0.99 -0.756,-1.8 -0.869,-1.8 -0.112,0 -0.489,0.81 -0.836,1.8 -0.753,2.144 -2.365,2.923 -2.365,1.142 0,-0.928 -1.496,-24.148 -1.749,-27.142 -0.09,-1.063 -0.259,-1.933 -0.376,-1.933 -0.117,0 -0.287,0.87 -0.378,1.933 m -92.964,0.669 c 0,0.68 -1.282,20.117 -1.474,22.349 -0.193,2.249 -1.278,2.658 -1.97,0.744 -0.402,-1.113 -0.812,-1.05 -1.226,0.187 -0.304,0.907 -0.329,0.919 -2.152,1.051 l -1.844,0.133 -0.705,6.934 c -0.387,3.813 -0.761,7.233 -0.83,7.6 -0.159,0.842 -0.087,2.101 -0.953,-16.512 -0.442,-9.505 -0.815,-15.346 -0.983,-15.401 -0.169,-0.056 -0.558,2.773 -1.026,7.445 -0.415,4.144 -0.819,8.098 -0.898,8.787 -0.142,1.248 -0.147,1.254 -1.23,1.334 -0.905,0.067 -1.116,0.192 -1.259,0.747 -0.216,0.841 -0.477,-0.347 -0.583,-2.646 -0.079,-1.705 -0.591,-2.087 -0.849,-0.633 -0.359,2.026 -0.254,1.945 -2.529,1.945 h -2.075 l -0.636,-1.6 c -0.785,-1.978 -0.92,-1.984 -1.466,-0.066 -0.373,1.306 -0.867,2.327 -0.93,1.92 -0.01,-0.066 -0.46,-5.27 -1,-11.565 -0.605,-7.049 -1.091,-11.481 -1.267,-11.539 -0.193,-0.065 -0.526,3.738 -1.025,11.711 -0.771,12.326 -0.845,13.033 -1.251,11.978 -0.153,-0.397 -0.386,-0.573 -0.633,-0.478 -0.272,0.105 -0.563,-0.232 -0.959,-1.105 -0.606,-1.34 -0.779,-1.261 -1.164,0.535 -0.154,0.72 -0.167,0.724 -2.752,0.8 -3.484,0.102 -3.391,0.587 0.131,0.685 l 2.729,0.076 0.358,-0.876 0.359,-0.876 0.184,0.734 c 0.12,0.473 0.362,0.733 0.684,0.733 0.334,0 0.641,0.354 0.927,1.067 0.598,1.497 0.897,1.331 1.079,-0.6 0.145,-1.529 1.191,-17.284 1.239,-18.668 0.057,-1.622 0.336,0.768 1.011,8.654 0.407,4.754 0.828,8.786 0.936,8.962 0.472,0.762 1.231,0.332 1.555,-0.882 0.395,-1.477 0.491,-1.484 1.151,-0.083 l 0.526,1.117 2.396,-0.068 c 1.317,-0.038 2.47,-0.189 2.561,-0.336 0.182,-0.295 0.51,1.724 0.51,3.141 0,1.404 0.488,1.052 0.976,-0.704 l 0.445,-1.6 h 1.119 1.119 l 0.147,-1.267 c 0.08,-0.696 0.361,-3.513 0.622,-6.259 0.262,-2.745 0.536,-4.933 0.608,-4.86 0.072,0.072 0.455,7.335 0.851,16.14 0.91,20.218 0.864,20.088 2.238,6.379 1.169,-11.669 0.815,-10.4 2.904,-10.4 1.605,0 1.724,-0.042 1.881,-0.666 0.215,-0.86 0.586,-0.853 0.803,0.015 0.128,0.509 0.318,0.661 0.751,0.6 0.467,-0.066 0.634,0.109 0.858,0.899 0.153,0.539 0.398,1.019 0.545,1.067 0.204,0.065 1.552,-16.626 1.715,-21.226 0.059,-1.685 0.32,0.787 0.966,9.178 0.791,10.274 0.699,9.781 1.847,9.91 0.804,0.091 1.461,-0.811 2.119,-2.91 0.38,-1.212 -0.334,-0.556 -0.948,0.87 -0.495,1.152 -0.748,1.456 -1.166,1.4 -0.508,-0.067 -0.58,-0.649 -1.517,-12.203 C 193.744,39.016 193.93,40.8 193.6,40.8 c -0.147,0 -0.267,0.211 -0.267,0.469 m 96.98,104.587 c -6.891,1.858 -12.329,7.382 -12.657,12.855 l -0.122,2.043 1.473,2.757 c 4.484,8.389 4.136,16.28 -1.404,31.834 -3.183,8.934 -3.032,11.648 0.875,15.779 9.189,9.716 30.638,5.688 40.066,-7.525 5.405,-7.574 2.013,-16.017 -8.944,-22.262 -4.685,-2.671 -4.832,-3.509 -1.236,-7.041 3.452,-3.391 4.749,-6.146 5.131,-10.893 0.88,-10.926 -11.89,-20.591 -23.182,-17.547 m -122.39,1.101 c -6.095,0.892 -12.846,4.812 -18.519,10.755 l -2.679,2.805 -1.617,-1.955 c -10.537,-12.739 -30.318,-14.162 -41.495,-2.985 -6.05,6.05 -8.732,14.706 -7.236,23.356 0.585,3.384 0.644,3.548 1.18,3.305 0.244,-0.111 0.783,-0.196 1.198,-0.19 0.641,0.009 0.731,-0.073 0.598,-0.552 -7.599,-27.26 27.679,-42.96 44.937,-19.998 2.313,3.077 2.38,3.083 4.63,0.384 11.532,-13.825 24.936,-16.482 37.056,-7.344 6.764,5.099 9.116,13.51 6.649,23.776 -0.127,0.527 0.986,1.142 2.084,1.151 1.093,0.009 1.509,-11.446 0.554,-15.259 -2.754,-10.993 -15.431,-18.991 -27.34,-17.249 m 129.546,11.003 c 5.316,2.476 5.581,11.001 0.444,14.27 -4.379,2.787 -7.246,1.944 -7.246,-2.13 0,-2.812 -0.324,-4.483 -1.406,-7.247 -0.787,-2.013 -0.8,-2.109 -0.381,-2.987 1.108,-2.323 5.568,-3.312 8.589,-1.906 m -197.736,26 c 0,0.173 -0.408,0.51 -0.906,0.748 l -0.906,0.432 0.508,1.476 c 2.07,6.017 10.331,18.869 13.072,20.336 1.312,0.702 2.165,-1.262 1.003,-2.311 -3.153,-2.849 -8.952,-11.928 -11.312,-17.709 -1.294,-3.17 -1.459,-3.506 -1.459,-2.972 m 196.839,3.237 c 6.556,2.053 9.732,7.019 7.305,11.421 -2.648,4.803 -10.746,8.591 -13.933,6.518 -0.912,-0.594 -0.957,-1.185 -0.313,-4.132 0.498,-2.28 0.601,-3.592 0.617,-7.857 0.011,-3.033 0.127,-5.227 0.285,-5.383 1.194,-1.181 3.412,-1.389 6.039,-0.567 m -116.304,14.976 c -6.49,10.547 -29.997,33.042 -34.509,33.024 -2.886,-0.012 -13.228,-7.808 -22.722,-17.128 l -2.429,-2.384 -1.169,0.596 -1.168,0.596 3.598,3.464 c 12.328,11.872 21.733,18.303 25.081,17.15 5.152,-1.775 26.855,-20.915 25.328,-22.337 -0.606,-0.565 -0.714,-1.544 -0.225,-2.034 0.388,-0.388 1.718,-0.424 1.947,-0.053 0.379,0.612 0.972,0.114 3.254,-2.734 5.967,-7.448 6.979,-9.533 4.626,-9.533 -0.637,0 -0.911,0.234 -1.612,1.373 M 281.6,263.218 c -7.337,1.096 -9.588,4.785 -8.045,13.187 1.552,8.452 1.33,13.376 -1.026,22.795 -4.516,18.052 -2.282,26.973 7.25,28.961 15.342,3.199 27.28,-0.066 31.435,-8.597 3.096,-6.357 -5.763,-14.034 -11.555,-10.013 -5.077,3.526 -11.074,3.635 -14.581,0.265 -5.592,-5.374 2.377,-12.09 9.727,-8.197 2.618,1.388 4.125,1.701 6.302,1.31 6.707,-1.203 8.428,-5.962 3.826,-10.575 -2.894,-2.9 -4.674,-3.067 -9.312,-0.873 -5.52,2.612 -10.03,2.497 -12.921,-0.33 -4.425,-4.326 1.076,-10.373 7.372,-8.104 12.632,4.553 14.138,4.813 16.21,2.805 2.348,-2.276 2.954,-7.686 1.261,-11.262 -3.306,-6.979 -16.535,-12.778 -25.943,-11.372"
           stroke="none"
           fill="#247cc4"
           fill-rule="evenodd" />
        <path
           id="path3"
           d="m 217.667,34.05 c 0.256,0.068 0.676,0.068 0.933,0 0.257,-0.067 0.047,-0.121 -0.467,-0.121 -0.513,0 -0.723,0.054 -0.466,0.121 m 2.133,0 c 0.257,0.068 0.677,0.068 0.933,0 0.257,-0.067 0.047,-0.121 -0.466,-0.121 -0.514,0 -0.724,0.054 -0.467,0.121 m 24.8,0.008 c 0.403,0.061 1.063,0.061 1.467,0 0.403,-0.061 0.073,-0.111 -0.734,-0.111 -0.806,0 -1.136,0.05 -0.733,0.111 M 254.4,38 c 0.498,0.513 0.965,0.933 1.038,0.933 0.073,0 -0.274,-0.42 -0.771,-0.933 -0.498,-0.513 -0.965,-0.933 -1.038,-0.933 -0.074,0 0.273,0.42 0.771,0.933 m -20.413,0.733 -1.054,1.134 1.134,-1.054 c 1.054,-0.981 1.256,-1.213 1.054,-1.213 -0.044,0 -0.554,0.51 -1.134,1.133 m -86.72,-0.416 c 0.256,0.067 0.676,0.067 0.933,0 0.257,-0.067 0.047,-0.122 -0.467,-0.122 -0.513,0 -0.723,0.055 -0.466,0.122 m 138.934,1.55 c 0.003,0.586 0.057,0.795 0.121,0.463 0.064,-0.331 0.061,-0.811 -0.005,-1.066 -0.067,-0.255 -0.119,0.016 -0.116,0.603 m 0.794,-0.134 c 0,0.514 0.055,0.724 0.122,0.467 0.067,-0.257 0.067,-0.677 0,-0.933 -0.067,-0.257 -0.122,-0.047 -0.122,0.466 m -93.493,0.98 c 0.167,0.121 0.369,0.46 0.45,0.754 0.115,0.42 0.136,0.396 0.097,-0.113 -0.027,-0.355 -0.229,-0.694 -0.449,-0.753 -0.264,-0.072 -0.297,-0.034 -0.098,0.112 m -0.373,1.954 c 0,0.513 0.054,0.723 0.121,0.466 0.068,-0.256 0.068,-0.676 0,-0.933 -0.067,-0.257 -0.121,-0.047 -0.121,0.467 m 94.138,1.2 c 0.003,0.586 0.058,0.795 0.122,0.463 0.063,-0.331 0.061,-0.811 -0.006,-1.066 -0.067,-0.255 -0.119,0.016 -0.116,0.603 m -1.333,0.266 c 0.003,0.587 0.057,0.796 0.121,0.464 0.064,-0.332 0.062,-0.812 -0.005,-1.067 -0.067,-0.255 -0.119,0.017 -0.116,0.603 M 164.867,45.2 c 0.003,0.587 0.058,0.795 0.122,0.464 0.063,-0.332 0.061,-0.812 -0.006,-1.067 -0.067,-0.255 -0.119,0.016 -0.116,0.603 m 92.543,0.533 c 0.002,0.734 0.053,1.002 0.115,0.597 0.061,-0.406 0.059,-1.006 -0.004,-1.334 -0.063,-0.328 -0.113,0.004 -0.111,0.737 m 29.19,-0.247 c -0.11,0.111 -0.2,0.567 -0.2,1.012 0,0.578 0.082,0.727 0.288,0.521 0.158,-0.158 0.248,-0.613 0.2,-1.012 -0.049,-0.399 -0.178,-0.633 -0.288,-0.521 M 192.867,46.8 c 0.003,0.587 0.058,0.795 0.122,0.464 0.063,-0.332 0.061,-0.812 -0.006,-1.067 -0.067,-0.255 -0.119,0.016 -0.116,0.603 m 13.087,0.8 c 0.001,1.027 0.05,1.414 0.107,0.861 0.058,-0.554 0.057,-1.394 -0.002,-1.867 -0.059,-0.473 -0.106,-0.021 -0.105,1.006 m 81.575,0.4 c 0,0.513 0.054,0.723 0.121,0.467 0.068,-0.257 0.068,-0.677 0,-0.934 -0.067,-0.256 -0.121,-0.046 -0.121,0.467 m -1.867,0.267 c 0,0.513 0.055,0.723 0.122,0.466 0.067,-0.256 0.067,-0.676 0,-0.933 -0.067,-0.257 -0.122,-0.047 -0.122,0.467 m -92.267,0.8 c 0,0.513 0.055,0.723 0.122,0.466 0.067,-0.256 0.067,-0.676 0,-0.933 -0.067,-0.257 -0.122,-0.047 -0.122,0.467 m -28.8,0.266 c 0,0.514 0.055,0.724 0.122,0.467 0.067,-0.257 0.067,-0.677 0,-0.933 -0.067,-0.257 -0.122,-0.047 -0.122,0.466 m 107.752,0.534 c 0,0.806 0.05,1.136 0.111,0.733 0.061,-0.403 0.061,-1.063 0,-1.467 -0.061,-0.403 -0.111,-0.073 -0.111,0.734 M 193.929,49.6 c 0,0.513 0.054,0.723 0.121,0.467 0.068,-0.257 0.068,-0.677 0,-0.934 -0.067,-0.256 -0.121,-0.046 -0.121,0.467 m 112.005,0.133 c 0.003,0.587 0.057,0.796 0.121,0.464 0.064,-0.332 0.062,-0.812 -0.005,-1.067 -0.067,-0.255 -0.119,0.017 -0.116,0.603 M 130.227,51.2 c 0,1.247 0.045,1.757 0.102,1.133 0.056,-0.623 0.056,-1.643 0,-2.266 -0.057,-0.624 -0.102,-0.114 -0.102,1.133 m 156.768,-1.067 c 0,0.514 0.055,0.724 0.122,0.467 0.067,-0.257 0.067,-0.677 0,-0.933 -0.067,-0.257 -0.122,-0.047 -0.122,0.466 m -0.794,0.4 c 0.003,0.587 0.057,0.796 0.121,0.464 0.064,-0.332 0.061,-0.812 -0.005,-1.067 -0.067,-0.255 -0.119,0.017 -0.116,0.603 m -93.6,0.267 c 0.003,0.587 0.057,0.795 0.121,0.464 0.064,-0.332 0.061,-0.812 -0.005,-1.067 -0.067,-0.255 -0.119,0.016 -0.116,0.603 m -27.472,0.667 c 0,0.513 0.054,0.723 0.121,0.466 0.068,-0.256 0.068,-0.676 0,-0.933 -0.067,-0.257 -0.121,-0.047 -0.121,0.467 M 287.795,52 c 0,0.513 0.055,0.723 0.122,0.467 0.067,-0.257 0.067,-0.677 0,-0.934 -0.067,-0.256 -0.122,-0.046 -0.122,0.467 m -106.119,0.933 c 0.002,0.734 0.054,1.002 0.115,0.597 0.062,-0.406 0.06,-1.006 -0.003,-1.334 -0.064,-0.328 -0.114,0.004 -0.112,0.737 m 103.719,-0.4 c 0,0.514 0.055,0.724 0.122,0.467 0.067,-0.257 0.067,-0.677 0,-0.933 -0.067,-0.257 -0.122,-0.047 -0.122,0.466 m -92.266,0.534 c 0,0.513 0.054,0.723 0.121,0.466 0.068,-0.256 0.068,-0.676 0,-0.933 -0.067,-0.257 -0.121,-0.047 -0.121,0.467 m -28.8,0.266 c 0,0.514 0.054,0.724 0.121,0.467 0.068,-0.257 0.068,-0.677 0,-0.933 -0.067,-0.257 -0.121,-0.047 -0.121,0.466 m 122.933,0.8 c 0,0.514 0.055,0.724 0.122,0.467 0.067,-0.257 0.067,-0.677 0,-0.933 -0.067,-0.257 -0.122,-0.047 -0.122,0.466 m 18.939,0.134 c 0.003,0.586 0.057,0.795 0.121,0.463 0.064,-0.331 0.061,-0.811 -0.005,-1.066 -0.067,-0.255 -0.119,0.016 -0.116,0.603 m -125.205,1.2 c 0.08,0.953 0.189,1.783 0.241,1.844 0.186,0.215 0.04,-2.253 -0.172,-2.911 -0.129,-0.4 -0.156,0.027 -0.069,1.067 M 285.934,54.8 c 0.003,0.587 0.057,0.795 0.121,0.464 0.064,-0.332 0.062,-0.812 -0.005,-1.067 -0.067,-0.255 -0.119,0.016 -0.116,0.603 m -93.605,0.133 c 0,0.514 0.054,0.724 0.121,0.467 0.068,-0.257 0.068,-0.677 0,-0.933 -0.067,-0.257 -0.121,-0.047 -0.121,0.466 m -27.467,0.534 c 0,0.513 0.055,0.723 0.122,0.466 0.067,-0.256 0.067,-0.676 0,-0.933 -0.067,-0.257 -0.122,-0.047 -0.122,0.467 m 107.748,0.666 c 0.002,0.734 0.053,1.002 0.115,0.597 0.061,-0.406 0.059,-1.006 -0.004,-1.334 -0.063,-0.328 -0.113,0.004 -0.111,0.737 M 288.062,56 c 0,0.513 0.055,0.723 0.122,0.467 0.067,-0.257 0.067,-0.677 0,-0.934 -0.067,-0.256 -0.122,-0.046 -0.122,0.467 m -2.928,0.667 c 0.003,0.586 0.057,0.795 0.121,0.463 0.064,-0.331 0.062,-0.811 -0.005,-1.066 -0.067,-0.255 -0.119,0.016 -0.116,0.603 m 20.533,0 c 0.003,0.586 0.058,0.795 0.122,0.463 0.063,-0.331 0.061,-0.811 -0.006,-1.066 -0.067,-0.255 -0.119,0.016 -0.116,0.603 m -112.805,0.4 c 0,0.513 0.055,0.723 0.122,0.466 0.067,-0.256 0.067,-0.676 0,-0.933 -0.067,-0.257 -0.122,-0.047 -0.122,0.467 m -28.8,0.266 c 0,0.514 0.055,0.724 0.122,0.467 0.067,-0.257 0.067,-0.677 0,-0.933 -0.067,-0.257 -0.122,-0.047 -0.122,0.466 m 31.2,0.534 c 0,0.513 0.055,0.723 0.122,0.466 0.067,-0.256 0.067,-0.676 0,-0.933 -0.067,-0.257 -0.122,-0.047 -0.122,0.467 m 92.272,0.4 c 0.003,0.586 0.057,0.795 0.121,0.463 0.064,-0.331 0.062,-0.811 -0.005,-1.066 -0.067,-0.255 -0.119,0.016 -0.116,0.603 M 181.943,58.8 c 0.002,0.733 0.054,1.002 0.115,0.596 0.061,-0.405 0.06,-1.005 -0.004,-1.333 -0.063,-0.328 -0.113,0.004 -0.111,0.737 m 124.524,-0.267 c 0.003,0.587 0.058,0.796 0.122,0.464 0.063,-0.332 0.061,-0.812 -0.006,-1.067 -0.067,-0.255 -0.119,0.017 -0.116,0.603 m -114.405,0.4 c 0,0.514 0.055,0.724 0.122,0.467 0.067,-0.257 0.067,-0.677 0,-0.933 -0.067,-0.257 -0.122,-0.047 -0.122,0.466 m 80.018,0.534 c 0,0.806 0.05,1.136 0.111,0.733 0.061,-0.403 0.061,-1.063 0,-1.467 -0.061,-0.403 -0.111,-0.073 -0.111,0.734 m 13.587,-0.4 c 0.003,0.586 0.058,0.795 0.122,0.463 0.063,-0.331 0.061,-0.811 -0.006,-1.066 -0.067,-0.255 -0.119,0.016 -0.116,0.603 M 164.601,59.6 c 0.003,0.587 0.057,0.795 0.121,0.464 0.064,-0.332 0.061,-0.812 -0.005,-1.067 -0.067,-0.255 -0.119,0.016 -0.116,0.603 m 39.385,0.6 -0.919,1 1,-0.919 c 0.93,-0.855 1.122,-1.081 0.919,-1.081 -0.045,0 -0.495,0.45 -1,1 m 84.348,-0.067 c 0.003,0.587 0.057,0.796 0.121,0.464 0.064,-0.332 0.062,-0.812 -0.005,-1.067 -0.067,-0.255 -0.119,0.017 -0.116,0.603 m -3.467,0.8 c 0.003,0.587 0.058,0.796 0.122,0.464 0.063,-0.332 0.061,-0.812 -0.006,-1.067 -0.067,-0.255 -0.119,0.017 -0.116,0.603 m -92.272,0.134 c 0,0.513 0.055,0.723 0.122,0.466 0.067,-0.256 0.067,-0.676 0,-0.933 -0.067,-0.257 -0.122,-0.047 -0.122,0.467 m 113.334,0 c 0,0.513 0.054,0.723 0.121,0.466 0.068,-0.256 0.068,-0.676 0,-0.933 -0.067,-0.257 -0.121,-0.047 -0.121,0.467 m -142.128,0.4 c 0.003,0.586 0.057,0.795 0.121,0.463 0.064,-0.331 0.061,-0.811 -0.005,-1.066 -0.067,-0.255 -0.119,0.016 -0.116,0.603 M 181.41,62 c 0.002,0.733 0.053,1.002 0.115,0.596 0.061,-0.405 0.059,-1.005 -0.004,-1.333 -0.063,-0.328 -0.113,0.004 -0.111,0.737 m 91.47,0.4 c 0,0.807 0.05,1.137 0.111,0.733 0.061,-0.403 0.061,-1.063 0,-1.466 -0.061,-0.404 -0.111,-0.074 -0.111,0.733 m 14.915,0 c 0,0.513 0.055,0.723 0.122,0.467 0.067,-0.257 0.067,-0.677 0,-0.934 -0.067,-0.256 -0.122,-0.046 -0.122,0.467 m -96,0.533 c 0,0.514 0.055,0.724 0.122,0.467 0.067,-0.257 0.067,-0.677 0,-0.933 -0.067,-0.257 -0.122,-0.047 -0.122,0.466 m 114.939,0.134 c 0.003,0.586 0.057,0.795 0.121,0.463 0.064,-0.331 0.062,-0.811 -0.005,-1.066 -0.067,-0.255 -0.119,0.016 -0.116,0.603 M 285.395,63.2 c 0,0.513 0.055,0.723 0.122,0.467 0.067,-0.257 0.067,-0.677 0,-0.934 -0.067,-0.256 -0.122,-0.046 -0.122,0.467 m -121.066,0.533 c 0,0.514 0.054,0.724 0.121,0.467 0.068,-0.257 0.068,-0.677 0,-0.933 -0.067,-0.257 -0.121,-0.047 -0.121,0.466 m 17.881,0.934 c 0.002,0.733 0.053,1.001 0.115,0.596 0.061,-0.405 0.059,-1.005 -0.004,-1.333 -0.063,-0.328 -0.113,0.003 -0.111,0.737 m 106.385,-0.4 c 0,0.513 0.055,0.723 0.122,0.466 0.067,-0.256 0.067,-0.676 0,-0.933 -0.067,-0.257 -0.122,-0.047 -0.122,0.467 m -96.266,0.8 c 0,0.513 0.054,0.723 0.121,0.466 0.068,-0.256 0.068,-0.676 0,-0.933 -0.067,-0.257 -0.121,-0.047 -0.121,0.467 m 92.266,0 c 0,0.513 0.055,0.723 0.122,0.466 0.067,-0.256 0.067,-0.676 0,-0.933 -0.067,-0.257 -0.122,-0.047 -0.122,0.467 m -12.248,0.8 c 0,0.806 0.05,1.136 0.111,0.733 0.061,-0.403 0.061,-1.063 0,-1.467 -0.061,-0.403 -0.111,-0.073 -0.111,0.734 m 33.854,-0.4 c 0.003,0.586 0.057,0.795 0.121,0.463 0.064,-0.331 0.061,-0.811 -0.005,-1.066 -0.067,-0.255 -0.119,0.016 -0.116,0.603 m -142.755,0.199 c -0.08,0.574 -0.039,0.9 0.095,0.766 0.129,-0.128 0.191,-0.578 0.139,-1 -0.088,-0.704 -0.107,-0.686 -0.234,0.234 M 176.329,65.6 c 0,0.513 0.054,0.723 0.121,0.467 0.068,-0.257 0.068,-0.677 0,-0.934 -0.067,-0.256 -0.121,-0.046 -0.121,0.467 m 11.138,-0.267 -0.934,0.197 0.851,0.035 c 0.468,0.019 0.925,-0.085 1.016,-0.232 0.091,-0.146 0.128,-0.251 0.082,-0.231 -0.045,0.019 -0.502,0.123 -1.015,0.231 m 77.717,0.346 c -0.073,0.19 -0.099,2.08 -0.057,4.2 l 0.075,3.854 0.132,-4.2 c 0.13,-4.131 0.114,-4.543 -0.15,-3.854 m -88.216,0.132 c -0.072,0.116 0.311,0.167 0.851,0.114 1.475,-0.146 1.651,-0.28 0.397,-0.304 -0.615,-0.012 -1.177,0.074 -1.248,0.19 m 18.46,0.123 c 0.134,0.135 0.528,0.2 0.875,0.145 0.533,-0.084 0.496,-0.121 -0.245,-0.244 -0.53,-0.088 -0.778,-0.049 -0.63,0.099 m 92.634,0.466 c 0,0.513 0.055,0.723 0.122,0.467 0.067,-0.257 0.067,-0.677 0,-0.934 -0.067,-0.256 -0.122,-0.046 -0.122,0.467 M 171.933,66.062 c 0.624,0.056 1.644,0.056 2.267,0 0.623,-0.056 0.113,-0.102 -1.133,-0.102 -1.247,0 -1.757,0.046 -1.134,0.102 m 9.743,1.805 c 0.002,0.733 0.054,1.001 0.115,0.596 0.062,-0.405 0.06,-1.005 -0.003,-1.333 -0.064,-0.328 -0.114,0.003 -0.112,0.737 m 103.453,-0.4 c 0,0.513 0.054,0.723 0.121,0.466 0.068,-0.256 0.068,-0.676 0,-0.933 -0.067,-0.257 -0.121,-0.047 -0.121,0.467 m 21.872,0.133 c 0.003,0.587 0.057,0.795 0.121,0.464 0.064,-0.332 0.061,-0.812 -0.005,-1.067 -0.067,-0.255 -0.119,0.016 -0.116,0.603 M 164.04,67.695 c -0.033,0.735 -0.123,0.864 -0.507,0.718 -0.374,-0.143 -0.4,-0.111 -0.133,0.158 0.489,0.492 0.933,-0.071 0.794,-1.005 -0.109,-0.731 -0.116,-0.725 -0.154,0.129 m 11.761,0.172 c 0.003,0.586 0.057,0.795 0.121,0.463 0.064,-0.331 0.061,-0.811 -0.005,-1.066 -0.067,-0.255 -0.119,0.016 -0.116,0.603 m 97.342,0.8 c 0.002,0.733 0.054,1.001 0.115,0.596 0.061,-0.405 0.06,-1.005 -0.004,-1.333 -0.063,-0.328 -0.113,0.003 -0.111,0.737 m 3.031,0.066 c -0.068,0.11 0.555,0.166 1.384,0.125 2.605,-0.13 2.919,-0.243 0.791,-0.285 -1.128,-0.022 -2.107,0.05 -2.175,0.16 m 20.296,-0.011 c 0.331,0.064 0.811,0.061 1.066,-0.005 0.255,-0.067 -0.016,-0.119 -0.603,-0.116 -0.586,0.003 -0.795,0.057 -0.463,0.121 m 7.53,0.416 c 0,0.261 -0.285,0.47 -0.733,0.538 l -0.734,0.111 0.742,0.04 c 0.707,0.038 1.275,-0.566 0.891,-0.95 C 304.075,68.786 304,68.903 304,69.138 m -36.095,0.134 c -0.07,0.112 0.343,0.16 0.917,0.105 0.575,-0.055 1.045,-0.147 1.045,-0.205 0,-0.199 -1.835,-0.105 -1.962,0.1 M 289,69.255 c 0.33,0.063 0.87,0.063 1.2,0 0.33,-0.064 0.06,-0.116 -0.6,-0.116 -0.66,0 -0.93,0.052 -0.6,0.116 M 306.467,70 c 0.003,0.587 0.058,0.795 0.122,0.464 0.063,-0.332 0.061,-0.812 -0.006,-1.067 -0.067,-0.255 -0.119,0.016 -0.116,0.603 m 5.209,-0.736 c 0.775,0.054 1.975,0.053 2.666,-0.002 0.692,-0.054 0.058,-0.099 -1.409,-0.098 -1.466,0.001 -2.032,0.046 -1.257,0.1 M 182.48,70.667 c 0,0.806 0.05,1.136 0.111,0.733 0.061,-0.403 0.061,-1.063 0,-1.467 -0.061,-0.403 -0.111,-0.073 -0.111,0.734 M 272.613,72 c 0,0.807 0.05,1.137 0.111,0.733 0.061,-0.403 0.061,-1.063 0,-1.466 -0.061,-0.404 -0.111,-0.074 -0.111,0.733 m 34.654,-0.133 c 0.003,0.586 0.058,0.795 0.122,0.463 0.063,-0.331 0.061,-0.811 -0.006,-1.066 -0.067,-0.255 -0.119,0.016 -0.116,0.603 M 181.943,74 c 0.002,0.733 0.054,1.002 0.115,0.596 0.061,-0.405 0.06,-1.005 -0.004,-1.333 -0.063,-0.328 -0.113,0.004 -0.111,0.737 m 124.791,0.267 c 0.003,0.586 0.057,0.795 0.121,0.463 0.064,-0.331 0.062,-0.811 -0.005,-1.066 -0.067,-0.255 -0.119,0.016 -0.116,0.603 m -33.321,0.666 c 0,0.807 0.05,1.137 0.111,0.734 0.061,-0.404 0.061,-1.064 0,-1.467 -0.061,-0.403 -0.111,-0.073 -0.111,0.733 m -90.67,1.734 c 0.002,0.733 0.054,1.001 0.115,0.596 0.061,-0.405 0.06,-1.005 -0.004,-1.333 -0.063,-0.328 -0.113,0.003 -0.111,0.737 M 307.534,76.4 c 0.003,0.587 0.057,0.795 0.121,0.464 0.064,-0.332 0.062,-0.812 -0.005,-1.067 -0.067,-0.255 -0.119,0.016 -0.116,0.603 M 251,75.917 c 0.257,0.067 0.677,0.067 0.933,0 0.257,-0.067 0.047,-0.122 -0.466,-0.122 -0.514,0 -0.724,0.055 -0.467,0.122 m -40.667,0.805 c 0.33,0.063 0.87,0.063 1.2,0 0.33,-0.064 0.06,-0.116 -0.6,-0.116 -0.66,0 -0.93,0.052 -0.6,0.116 M 272.88,78.4 c 0,0.807 0.05,1.137 0.111,0.733 0.061,-0.403 0.061,-1.063 0,-1.466 -0.061,-0.404 -0.111,-0.074 -0.111,0.733 m 34.121,0.4 c 0.003,0.587 0.057,0.795 0.121,0.464 0.064,-0.332 0.061,-0.812 -0.005,-1.067 -0.067,-0.255 -0.119,0.016 -0.116,0.603 M 182.21,79.867 c 0.002,0.733 0.053,1.001 0.115,0.596 0.061,-0.405 0.059,-1.005 -0.004,-1.333 -0.063,-0.328 -0.113,0.003 -0.111,0.737 m 91.47,1.466 c 0,0.807 0.05,1.137 0.111,0.734 0.061,-0.404 0.061,-1.064 0,-1.467 -0.061,-0.403 -0.111,-0.073 -0.111,0.733 m 34.057,-0.511 c 0.003,0.501 0.124,1.091 0.271,1.311 0.186,0.28 0.214,0.039 0.092,-0.8 -0.217,-1.493 -0.368,-1.706 -0.363,-0.511 m -69.604,2.245 c -1.092,1.1 -1.926,2 -1.853,2 0.073,0 1.027,-0.9 2.12,-2 1.093,-1.1 1.927,-2 1.853,-2 -0.073,0 -1.027,0.9 -2.12,2 m -10.666,-0.8 c 0.497,0.513 0.964,0.933 1.038,0.933 0.073,0 -0.274,-0.42 -0.772,-0.933 -0.497,-0.514 -0.964,-0.934 -1.038,-0.934 -0.073,0 0.274,0.42 0.772,0.934 m 79.8,1.066 c 0.003,0.587 0.058,0.796 0.122,0.464 0.063,-0.332 0.061,-0.812 -0.006,-1.067 -0.067,-0.255 -0.119,0.017 -0.116,0.603 m -34.124,1.334 c 0.002,0.733 0.054,1.001 0.115,0.596 0.061,-0.405 0.06,-1.005 -0.004,-1.333 -0.063,-0.328 -0.113,0.003 -0.111,0.737 m -90.681,0.666 c 0,0.514 0.055,0.724 0.122,0.467 0.067,-0.257 0.067,-0.677 0,-0.933 -0.067,-0.257 -0.122,-0.047 -0.122,0.466 m 91.587,0.636 c -0.1,0.261 -0.172,0.795 -0.158,1.186 0.022,0.663 0.041,0.651 0.28,-0.18 0.278,-0.963 0.177,-1.787 -0.122,-1.006 m -0.636,4.964 c 0,0.807 0.05,1.137 0.111,0.734 0.061,-0.404 0.061,-1.064 0,-1.467 -0.061,-0.403 -0.111,-0.073 -0.111,0.733 m -163.951,19 -2.662,2.734 2.733,-2.662 c 2.539,-2.472 2.855,-2.805 2.662,-2.805 -0.039,0 -1.269,1.23 -2.733,2.733 M 73.158,114.8 c 0.001,1.173 0.048,1.62 0.104,0.993 0.057,-0.627 0.056,-1.587 -0.001,-2.133 -0.058,-0.547 -0.104,-0.033 -0.103,1.14 M 62.933,138 c -0.647,0.66 -1.117,1.2 -1.044,1.2 0.073,0 0.663,-0.54 1.311,-1.2 0.648,-0.66 1.118,-1.2 1.044,-1.2 -0.073,0 -0.663,0.54 -1.311,1.2 m 230.867,7.26 c 0.477,0.059 1.257,0.059 1.733,0 0.477,-0.06 0.087,-0.108 -0.866,-0.108 -0.954,0 -1.344,0.048 -0.867,0.108 m -172.267,2.666 c 0.477,0.059 1.257,0.059 1.734,0 0.476,-0.059 0.086,-0.107 -0.867,-0.107 -0.953,0 -1.343,0.048 -0.867,0.107 m 48.934,1.335 c 0.55,0.057 1.45,0.057 2,0 0.55,-0.058 0.1,-0.105 -1,-0.105 -1.1,0 -1.55,0.047 -1,0.105 m -20.477,7.606 -1.323,1.4 1.4,-1.324 c 0.77,-0.727 1.4,-1.357 1.4,-1.4 0,-0.199 -0.247,0.023 -1.477,1.324 m 38.143,-0.334 c 0.573,0.587 1.102,1.067 1.175,1.067 0.074,0 -0.335,-0.48 -0.908,-1.067 -0.573,-0.586 -1.102,-1.066 -1.175,-1.066 -0.073,0 0.335,0.48 0.908,1.066 m -82.946,0.867 -1.054,1.133 1.134,-1.054 c 1.054,-0.98 1.256,-1.212 1.054,-1.212 -0.044,0 -0.554,0.51 -1.134,1.133 m 36.146,0.867 c 0.797,0.806 1.509,1.466 1.582,1.466 0.073,0 -0.518,-0.66 -1.315,-1.466 -0.797,-0.807 -1.508,-1.467 -1.582,-1.467 -0.073,0 0.519,0.66 1.315,1.467 m 136.077,1.066 c 0.002,0.734 0.053,1.002 0.115,0.597 0.061,-0.406 0.059,-1.006 -0.004,-1.334 -0.063,-0.328 -0.113,0.004 -0.111,0.737 M 193.429,170.4 c 0,1.393 0.045,1.963 0.1,1.267 0.055,-0.697 0.055,-1.837 0,-2.534 -0.055,-0.696 -0.1,-0.126 -0.1,1.267 m -97.616,3.733 c 0,0.807 0.05,1.137 0.111,0.734 0.061,-0.404 0.061,-1.064 0,-1.467 -0.061,-0.403 -0.111,-0.073 -0.111,0.733 m 186.147,1.334 c 0,1.246 0.046,1.756 0.102,1.133 0.056,-0.623 0.056,-1.643 0,-2.267 -0.056,-0.623 -0.102,-0.113 -0.102,1.134 M 80.108,181.2 c 0,2.347 0.041,3.271 0.091,2.054 0.049,-1.217 0.049,-3.137 -0.001,-4.267 -0.05,-1.129 -0.09,-0.134 -0.09,2.213 m -29.175,0.267 c 0.797,0.806 1.509,1.466 1.582,1.466 0.073,0 -0.518,-0.66 -1.315,-1.466 C 50.403,180.66 49.692,180 49.618,180 c -0.073,0 0.519,0.66 1.315,1.467 m 29.396,7.333 c 0,0.513 0.054,0.723 0.121,0.467 0.068,-0.257 0.068,-0.677 0,-0.934 -0.067,-0.256 -0.121,-0.046 -0.121,0.467 m 222.071,2 c 0.498,0.513 0.965,0.933 1.038,0.933 0.073,0 -0.274,-0.42 -0.771,-0.933 -0.498,-0.513 -0.965,-0.933 -1.038,-0.933 -0.074,0 0.273,0.42 0.771,0.933 m 2.206,4.667 c 0,0.66 0.052,0.93 0.116,0.6 0.063,-0.33 0.063,-0.87 0,-1.2 -0.064,-0.33 -0.116,-0.06 -0.116,0.6 m 11.251,11.266 -1.324,1.4 1.4,-1.323 c 0.77,-0.728 1.4,-1.358 1.4,-1.4 0,-0.199 -0.247,0.022 -1.476,1.323 m -256.566,4.6 c 0.001,1.174 0.048,1.62 0.105,0.993 0.056,-0.627 0.055,-1.587 -0.002,-2.133 -0.057,-0.546 -0.104,-0.033 -0.103,1.14 m 111.622,2.467 -0.646,0.733 0.686,-0.602 c 0.378,-0.331 0.787,-0.511 0.91,-0.4 0.122,0.111 0.136,0.052 0.031,-0.131 -0.253,-0.439 -0.235,-0.446 -0.981,0.4 m -0.123,3.867 -1.323,1.4 1.4,-1.324 c 1.301,-1.229 1.522,-1.476 1.323,-1.476 -0.042,0 -0.672,0.63 -1.4,1.4 m 120.751,-0.937 c 0.701,0.055 1.781,0.054 2.4,-0.002 0.619,-0.056 0.046,-0.101 -1.274,-0.1 -1.32,0.001 -1.827,0.047 -1.126,0.102 M 119.6,218.4 c 0.871,0.88 1.643,1.6 1.717,1.6 0.073,0 -0.58,-0.72 -1.45,-1.6 -0.871,-0.88 -1.644,-1.6 -1.717,-1.6 -0.073,0 0.579,0.72 1.45,1.6 m 46.128,0.867 -2.395,2.466 2.467,-2.394 c 1.357,-1.317 2.467,-2.427 2.467,-2.467 0,-0.193 -0.315,0.104 -2.539,2.395 m -41.328,0.2 c 0.573,0.586 1.102,1.066 1.175,1.066 0.073,0 -0.335,-0.48 -0.908,-1.066 -0.573,-0.587 -1.102,-1.067 -1.175,-1.067 -0.074,0 0.335,0.48 0.908,1.067 m -0.667,2.75 c 0,0.046 0.39,0.436 0.867,0.866 l 0.867,0.784 -0.784,-0.867 c -0.73,-0.808 -0.95,-0.989 -0.95,-0.783 m 40.534,1.916 c -0.648,0.66 -1.118,1.2 -1.045,1.2 0.074,0 0.664,-0.54 1.311,-1.2 0.648,-0.66 1.118,-1.2 1.045,-1.2 -0.074,0 -0.664,0.54 -1.311,1.2 m -4.15,0.467 -0.784,0.867 0.867,-0.784 c 0.808,-0.73 0.989,-0.95 0.783,-0.95 -0.046,0 -0.436,0.39 -0.866,0.867 M 107.6,250.4 c 0.573,0.587 1.102,1.067 1.175,1.067 0.073,0 -0.335,-0.48 -0.908,-1.067 -0.573,-0.587 -1.102,-1.067 -1.175,-1.067 -0.074,0 0.335,0.48 0.908,1.067 m 4,4 c 0.573,0.587 1.102,1.067 1.175,1.067 0.073,0 -0.335,-0.48 -0.908,-1.067 -0.573,-0.587 -1.102,-1.067 -1.175,-1.067 -0.074,0 0.335,0.48 0.908,1.067 m -57.467,0.667 c 0.498,0.513 0.965,0.933 1.038,0.933 0.074,0 -0.273,-0.42 -0.771,-0.933 -0.498,-0.514 -0.965,-0.934 -1.038,-0.934 -0.073,0 0.274,0.42 0.771,0.934 m 36.8,13.273 c 0,0.04 0.93,0.97 2.067,2.067 l 2.067,1.993 -1.994,-2.067 c -1.851,-1.919 -2.14,-2.188 -2.14,-1.993 m 214,2.593 c 0.573,0.587 1.102,1.067 1.175,1.067 0.074,0 -0.335,-0.48 -0.908,-1.067 -0.573,-0.586 -1.102,-1.066 -1.175,-1.066 -0.073,0 0.335,0.48 0.908,1.066 m -100.227,8.18 c 0.169,0.121 0.368,0.52 0.443,0.887 0.117,0.574 0.13,0.558 0.093,-0.113 -0.024,-0.439 -0.216,-0.826 -0.442,-0.887 -0.267,-0.072 -0.298,-0.034 -0.094,0.113 m -30.106,2.675 c 0.33,0.064 0.87,0.064 1.2,0 0.33,-0.063 0.06,-0.115 -0.6,-0.115 -0.66,0 -0.93,0.052 -0.6,0.115 m 11.47,10e-4 c 0.331,0.063 0.811,0.061 1.066,-0.006 0.255,-0.067 -0.016,-0.119 -0.603,-0.116 -0.586,0.003 -0.795,0.058 -0.463,0.122 m 88.415,4.078 c 0,0.953 0.049,1.343 0.108,0.866 0.059,-0.476 0.059,-1.256 0,-1.733 -0.059,-0.477 -0.108,-0.087 -0.108,0.867 M 99.801,287.6 c 0.003,0.587 0.057,0.795 0.121,0.464 0.064,-0.332 0.061,-0.812 -0.005,-1.067 -0.067,-0.255 -0.119,0.016 -0.116,0.603 m 190.535,12.855 c 0.332,0.064 0.812,0.062 1.067,-0.005 0.255,-0.067 -0.016,-0.119 -0.603,-0.116 -0.587,0.003 -0.795,0.057 -0.464,0.121 m -148.803,0.8 c 0.33,0.063 0.87,0.063 1.2,0 0.33,-0.064 0.06,-0.116 -0.6,-0.116 -0.66,0 -0.93,0.052 -0.6,0.116 M 99.456,303 c 0.653,0.697 1.223,1.267 1.266,1.267 0.2,0 -0.011,-0.24 -1.189,-1.345 l -1.266,-1.189 1.189,1.267 m 25.465,6.667 -1.054,1.133 1.133,-1.054 c 1.054,-0.98 1.256,-1.213 1.054,-1.213 -0.043,0 -0.553,0.51 -1.133,1.134 m 64.612,19.859 c 0.477,0.059 1.257,0.059 1.734,0 0.476,-0.059 0.086,-0.107 -0.867,-0.107 -0.953,0 -1.343,0.048 -0.867,0.107 m 102,0.002 c 0.55,0.057 1.45,0.057 2,0 0.55,-0.058 0.1,-0.105 -1,-0.105 -1.1,0 -1.55,0.047 -1,0.105"
           stroke="none"
           fill="#73a7ce"
           fill-rule="evenodd" />
      </g>
    </g>
  </g>
</svg>
